<?xml version="1.0" encoding="utf-8"?>
<svg version="1.1" xmlns:xlink="http://www.w3.org/1999/xlink" width="4px" height="4px" xmlns="http://www.w3.org/2000/svg">
  <defs>
    <pattern id="BGPattern" patternUnits="userSpaceOnUse" alignment="0 0" imageRepeat="None" />
    <mask fill="white" id="Clip22">
      <path d="M 0.12499999999999822 1.9999999999999982  C 0.12499999999999822 3.035533905932736  0.9644660940672622 3.8749999999999964  1.9999999999999982 3.8749999999999964  C 3.035533905932736 3.8749999999999964  3.8749999999999964 3.035533905932736  3.8749999999999964 1.9999999999999982  C 3.8749999999999964 0.9644660940672622  3.035533905932736 0.12499999999999822  1.9999999999999982 0.12499999999999822  C 0.9644660940672622 0.12499999999999822  0.12499999999999822 0.9644660940672622  0.12499999999999822 1.9999999999999982  Z " fill-rule="evenodd" />
    </mask>
  </defs>
  <g transform="matrix(1 0 0 1 -187 -31 )">
    <path d="M 0.12499999999999822 1.9999999999999982  C 0.12499999999999822 3.035533905932736  0.9644660940672622 3.8749999999999964  1.9999999999999982 3.8749999999999964  C 3.035533905932736 3.8749999999999964  3.8749999999999964 3.035533905932736  3.8749999999999964 1.9999999999999982  C 3.8749999999999964 0.9644660940672622  3.035533905932736 0.12499999999999822  1.9999999999999982 0.12499999999999822  C 0.9644660940672622 0.12499999999999822  0.12499999999999822 0.9644660940672622  0.12499999999999822 1.9999999999999982  Z " fill-rule="nonzero" fill="rgba(213, 153, 68, 1)" stroke="none" transform="matrix(1 0 0 1 187 31 )" class="fill" />
    <path d="M 0.12499999999999822 1.9999999999999982  C 0.12499999999999822 3.035533905932736  0.9644660940672622 3.8749999999999964  1.9999999999999982 3.8749999999999964  C 3.035533905932736 3.8749999999999964  3.8749999999999964 3.035533905932736  3.8749999999999964 1.9999999999999982  C 3.8749999999999964 0.9644660940672622  3.035533905932736 0.12499999999999822  1.9999999999999982 0.12499999999999822  C 0.9644660940672622 0.12499999999999822  0.12499999999999822 0.9644660940672622  0.12499999999999822 1.9999999999999982  Z " stroke-width="0" stroke-dasharray="0" stroke="rgba(255, 255, 255, 0)" fill="none" transform="matrix(1 0 0 1 187 31 )" class="stroke" mask="url(#Clip22)" />
  </g>
</svg>