<?xml version="1.0" encoding="utf-8"?>
<svg version="1.1" xmlns:xlink="http://www.w3.org/1999/xlink" width="24px" height="24px" xmlns="http://www.w3.org/2000/svg">
  <defs>
    <pattern id="BGPattern" patternUnits="userSpaceOnUse" alignment="0 0" imageRepeat="None" />
    <mask fill="white" id="Clip23">
      <path d="M 22.5 11.25  L 21.7125 11.25  C 21.33792372183769 6.464137431279127  17.5359251975185 2.6627752247045935  12.75 2.289  L 12.75 1.5  C 12.75 1.0857864376269049  12.414213562373096 0.75  12 0.75  C 11.585786437626904 0.75  11.25 1.0857864376269049  11.25 1.5  L 11.25 2.289  C 6.464659841217708 2.6634769580898836  2.6634769580898836 6.464659841217708  2.289 11.25  L 1.5 11.25  C 1.0857864376269049 11.25  0.75 11.585786437626904  0.75 12  C 0.75 12.414213562373096  1.0857864376269049 12.75  1.5 12.75  L 2.289 12.75  C 2.6627752247045935 17.5359251975185  6.464137431279127 21.33792372183769  11.25 21.7125  L 11.25 22.5  C 11.25 22.914213562373096  11.585786437626904 23.25  12 23.25  C 12.414213562373096 23.25  12.75 22.914213562373096  12.75 22.5  L 12.75 21.7125  C 17.536447623824667 21.338625522057217  21.338625522057217 17.536447623824667  21.7125 12.75  L 22.5 12.75  C 22.914213562373096 12.75  23.25 12.414213562373096  23.25 12  C 23.25 11.585786437626904  22.914213562373096 11.25  22.5 11.25  Z M 20.2125 12.75  C 19.846505099490923 16.709938305579062  16.709938305579062 19.846505099490923  12.75 20.2125  L 12.75 18.75  C 12.75 18.335786437626904  12.414213562373096 18  12 18  C 11.585786437626904 18  11.25 18.335786437626904  11.25 18.75  L 11.249999999999998 20.2125  C 7.290646456117226 19.845824380826834  4.154879681820788 16.70942717493122  3.7889999999999997 12.75  L 5.25 12.75  C 5.664213562373095 12.75  6 12.414213562373096  6 12  C 6 11.585786437626904  5.664213562373095 11.25  5.25 11.25  L 3.7889999999999997 11.249999999999998  C 4.155560325496003 7.291157567846725  7.291157567846725 4.155560325496003  11.25 3.7889999999999997  L 11.25 5.25  C 11.25 5.664213562373095  11.585786437626904 6  12 6  C 12.414213562373096 6  12.75 5.664213562373095  12.75 5.25  L 12.75 3.7889999999999997  C 16.70942717493122 4.154879681820788  19.845824380826834 7.290646456117226  20.2125 11.25  L 18.75 11.25  C 18.335786437626904 11.25  18 11.585786437626904  18 12  C 18 12.414213562373096  18.335786437626904 12.75  18.75 12.75  L 20.2125 12.75  Z " fill-rule="evenodd" />
    </mask>
  </defs>
  <g transform="matrix(1 0 0 1 -177 -21 )">
    <path d="M 22.5 11.25  L 21.7125 11.25  C 21.33792372183769 6.464137431279127  17.5359251975185 2.6627752247045935  12.75 2.289  L 12.75 1.5  C 12.75 1.0857864376269049  12.414213562373096 0.75  12 0.75  C 11.585786437626904 0.75  11.25 1.0857864376269049  11.25 1.5  L 11.25 2.289  C 6.464659841217708 2.6634769580898836  2.6634769580898836 6.464659841217708  2.289 11.25  L 1.5 11.25  C 1.0857864376269049 11.25  0.75 11.585786437626904  0.75 12  C 0.75 12.414213562373096  1.0857864376269049 12.75  1.5 12.75  L 2.289 12.75  C 2.6627752247045935 17.5359251975185  6.464137431279127 21.33792372183769  11.25 21.7125  L 11.25 22.5  C 11.25 22.914213562373096  11.585786437626904 23.25  12 23.25  C 12.414213562373096 23.25  12.75 22.914213562373096  12.75 22.5  L 12.75 21.7125  C 17.536447623824667 21.338625522057217  21.338625522057217 17.536447623824667  21.7125 12.75  L 22.5 12.75  C 22.914213562373096 12.75  23.25 12.414213562373096  23.25 12  C 23.25 11.585786437626904  22.914213562373096 11.25  22.5 11.25  Z M 20.2125 12.75  C 19.846505099490923 16.709938305579062  16.709938305579062 19.846505099490923  12.75 20.2125  L 12.75 18.75  C 12.75 18.335786437626904  12.414213562373096 18  12 18  C 11.585786437626904 18  11.25 18.335786437626904  11.25 18.75  L 11.249999999999998 20.2125  C 7.290646456117226 19.845824380826834  4.154879681820788 16.70942717493122  3.7889999999999997 12.75  L 5.25 12.75  C 5.664213562373095 12.75  6 12.414213562373096  6 12  C 6 11.585786437626904  5.664213562373095 11.25  5.25 11.25  L 3.7889999999999997 11.249999999999998  C 4.155560325496003 7.291157567846725  7.291157567846725 4.155560325496003  11.25 3.7889999999999997  L 11.25 5.25  C 11.25 5.664213562373095  11.585786437626904 6  12 6  C 12.414213562373096 6  12.75 5.664213562373095  12.75 5.25  L 12.75 3.7889999999999997  C 16.70942717493122 4.154879681820788  19.845824380826834 7.290646456117226  20.2125 11.25  L 18.75 11.25  C 18.335786437626904 11.25  18 11.585786437626904  18 12  C 18 12.414213562373096  18.335786437626904 12.75  18.75 12.75  L 20.2125 12.75  Z " fill-rule="nonzero" fill="rgba(213, 153, 68, 1)" stroke="none" transform="matrix(1 0 0 1 177 21 )" class="fill" />
    <path d="M 22.5 11.25  L 21.7125 11.25  C 21.33792372183769 6.464137431279127  17.5359251975185 2.6627752247045935  12.75 2.289  L 12.75 1.5  C 12.75 1.0857864376269049  12.414213562373096 0.75  12 0.75  C 11.585786437626904 0.75  11.25 1.0857864376269049  11.25 1.5  L 11.25 2.289  C 6.464659841217708 2.6634769580898836  2.6634769580898836 6.464659841217708  2.289 11.25  L 1.5 11.25  C 1.0857864376269049 11.25  0.75 11.585786437626904  0.75 12  C 0.75 12.414213562373096  1.0857864376269049 12.75  1.5 12.75  L 2.289 12.75  C 2.6627752247045935 17.5359251975185  6.464137431279127 21.33792372183769  11.25 21.7125  L 11.25 22.5  C 11.25 22.914213562373096  11.585786437626904 23.25  12 23.25  C 12.414213562373096 23.25  12.75 22.914213562373096  12.75 22.5  L 12.75 21.7125  C 17.536447623824667 21.338625522057217  21.338625522057217 17.536447623824667  21.7125 12.75  L 22.5 12.75  C 22.914213562373096 12.75  23.25 12.414213562373096  23.25 12  C 23.25 11.585786437626904  22.914213562373096 11.25  22.5 11.25  Z " stroke-width="0" stroke-dasharray="0" stroke="rgba(255, 255, 255, 0)" fill="none" transform="matrix(1 0 0 1 177 21 )" class="stroke" mask="url(#Clip23)" />
    <path d="M 20.2125 12.75  C 19.846505099490923 16.709938305579062  16.709938305579062 19.846505099490923  12.75 20.2125  L 12.75 18.75  C 12.75 18.335786437626904  12.414213562373096 18  12 18  C 11.585786437626904 18  11.25 18.335786437626904  11.25 18.75  L 11.249999999999998 20.2125  C 7.290646456117226 19.845824380826834  4.154879681820788 16.70942717493122  3.7889999999999997 12.75  L 5.25 12.75  C 5.664213562373095 12.75  6 12.414213562373096  6 12  C 6 11.585786437626904  5.664213562373095 11.25  5.25 11.25  L 3.7889999999999997 11.249999999999998  C 4.155560325496003 7.291157567846725  7.291157567846725 4.155560325496003  11.25 3.7889999999999997  L 11.25 5.25  C 11.25 5.664213562373095  11.585786437626904 6  12 6  C 12.414213562373096 6  12.75 5.664213562373095  12.75 5.25  L 12.75 3.7889999999999997  C 16.70942717493122 4.154879681820788  19.845824380826834 7.290646456117226  20.2125 11.25  L 18.75 11.25  C 18.335786437626904 11.25  18 11.585786437626904  18 12  C 18 12.414213562373096  18.335786437626904 12.75  18.75 12.75  L 20.2125 12.75  Z " stroke-width="0" stroke-dasharray="0" stroke="rgba(255, 255, 255, 0)" fill="none" transform="matrix(1 0 0 1 177 21 )" class="stroke" mask="url(#Clip23)" />
  </g>
</svg>