<?xml version="1.0" encoding="utf-8"?>
<svg version="1.1" xmlns:xlink="http://www.w3.org/1999/xlink" width="12px" height="12px" xmlns="http://www.w3.org/2000/svg">
  <defs>
    <pattern id="BGPattern" patternUnits="userSpaceOnUse" alignment="0 0" imageRepeat="None" />
    <mask fill="white" id="Clip3">
      <path d="M 1.817890909090909 0.4997142857142859  L 6.298472727272728 0.49971428571428567  C 6.619962688652654 0.49971428571428556  6.8805818059147885 0.7556794901681662  6.8805818059147885 1.0714285714285712  C 6.8805818059147885 1.387177652688976  6.619962688652654 1.6431428571428572  6.298472715005696 1.6431428571428572  L 1.817890909090909 1.6431428571428572  C 1.4968829294074404 1.6431428571428572  1.2366545454545457 1.898724305668021  1.2366545454545457 2.2139999999999995  L 1.2366545454545457 9.977142857142859  L 2.570181818181818 8.667428571428571  L 2.982109090909091 9.072  L 2.570181818181818 8.668285714285716  C 2.679333777042428 8.560791630122722  2.827535079820798 8.500349361510782  2.982109090909091 8.500285714285713  L 9.963927272727272 8.500285714285713  C 10.28507637241255 8.499812828755447  10.54516399729596 8.243986077392087  10.545163636363636 7.928571428571429  L 10.545163636363636 5.814  C 10.545163636363636 5.498250918739595  10.80578275362577 5.242285714285714  11.127272727272727 5.242285714285714  C 11.448762700919684 5.242285714285714  11.709381818181818 5.498250918739595  11.709381818181818 5.814  L 11.709381818181818 7.928571428571429  C 11.709381818181818 8.875345285424217  10.927915199704657 9.642857142857142  9.963927272727272 9.642857142857142  L 3.222109090909091 9.642857142857142  L 1.0664727272727272 11.761714285714284  C 0.9572806412247293 11.869120491009141  0.8090841473642484 11.929474472560667  0.6545451151931742 11.929474472560667  C 0.3330551415462163 11.929474472560667  0.07243602428408322 11.673509268106788  0.07243602428408322 11.357760186846383  L 0.0724363636363636 2.2140000000000004  C 0.0724363636363636 1.2672261431472114  0.8539029821135243 0.4997142857142859  1.817890909090909 0.4997142857142859  Z M 5.94589090909091 3.4645714285714293  L 6.178909090909091 2.8834285714285715  C 6.2030206110489905 2.8241823408333935  6.261436300997732 2.7853285555673026  6.326399999999999 2.7853285555673026  C 6.391363699002264 2.7853285555673026  6.449779388951007 2.8241823408333926  6.473890909090908 2.8834285714285715  L 6.70690909090909 3.4645714285714284  C 6.749672727272726 3.571714285714286  6.835199999999999 3.6557142857142852  6.944290909090908 3.697714285714286  L 7.535127272727272 3.926571428571429  C 7.595450707515091 3.9502523858516883  7.635010925240563 4.007624938479918  7.635010925240563 4.071428571428571  C 7.635010925240563 4.135232204377226  7.595450707515091 4.192604757005455  7.535127272727272 4.216285714285714  L 6.944290909090908 4.445142857142858  C 6.83576745651019 4.487311562389726  6.749844499887718 4.571700180501081  6.70690909090909 4.678285714285716  L 6.473890909090908 5.258571428571429  C 6.449779388951007 5.317817659166609  6.391363699002265 5.356671444432697  6.326399999999999 5.356671444432697  C 6.261436300997732 5.356671444432697  6.203020611048991 5.317817659166607  6.178909090909091 5.25857142857143  L 5.94589090909091 4.678285714285716  C 5.902955500112281 4.571700180501081  5.817032543489811 4.487311562389727  5.708509090909091 4.445142857142859  L 5.117672727272728 4.216285714285716  C 5.0573492924849095 4.192604757005456  5.0177890747594365 4.1352322043772265  5.0177890747594365 4.071428571428572  C 5.0177890747594365 4.007624938479918  5.0573492924849095 3.950252385851689  5.117672727272728 3.9265714285714295  L 5.708509090909091 3.6977142857142864  C 5.817032543489809 3.655545580467418  5.902955500112281 3.5711569623560626  5.94589090909091 3.4645714285714293  Z M 9.182836363636364 1.3448571428571436  L 9.572072727272728 0.37799999999999984  C 9.611748603301836 0.2790391123240956  9.7090187944112 0.21398407783753867  9.817309090909092 0.21398407783753867  C 9.925599387406981 0.21398407783753867  10.022869578516346 0.2790391123240965  10.062545454545454 0.37799999999999984  L 10.451781818181818 1.3448571428571428  C 10.522991955795327 1.522755504764198  10.666151858779383 1.6636693638587987  10.84712727272727 1.7340000000000002  L 11.832436363636361 2.1162857142857145  C 12.054981818181815 2.2020000000000004  12.054981818181815 2.5122857142857145  11.832436363636361 2.5980000000000008  L 10.846254545454542 2.9794285714285724  C 10.665668535354019 3.0500433278217383  10.522882493161568 3.190900133824644  10.451781818181816 3.368571428571429  L 10.062545454545452 4.336285714285715  C 10.022869578516344 4.4352466019616195  9.925599387406978 4.500301636448176  9.817309090909088 4.500301636448176  C 9.709018794411197 4.500301636448176  9.611748603301832 4.435246601961619  9.572072727272726 4.336285714285715  L 9.182836363636362 3.367714285714287  C 9.111336520527846 3.1901981213040678  8.96823464012677 3.049651631624437  8.787490909090907 2.9794285714285724  L 7.802181818181818 2.5980000000000008  C 7.7014216416390795 2.5590326217571278  7.635183788343674 2.463499398346143  7.635183788343674 2.3571428571428585  C 7.635183788343674 2.250786315939574  7.7014216416390795 2.1552530925285875  7.802181818181818 2.1162857142857154  L 8.788363636363638 1.7340000000000009  C 8.969008462633878 1.6634728159277192  9.11182511200528 1.522585816291031  9.182836363636364 1.3448571428571436  Z " fill-rule="evenodd" />
    </mask>
  </defs>
  <g transform="matrix(1 0 0 1 -131 -29 )">
    <path d="M 1.817890909090909 0.4997142857142859  L 6.298472727272728 0.49971428571428567  C 6.619962688652654 0.49971428571428556  6.8805818059147885 0.7556794901681662  6.8805818059147885 1.0714285714285712  C 6.8805818059147885 1.387177652688976  6.619962688652654 1.6431428571428572  6.298472715005696 1.6431428571428572  L 1.817890909090909 1.6431428571428572  C 1.4968829294074404 1.6431428571428572  1.2366545454545457 1.898724305668021  1.2366545454545457 2.2139999999999995  L 1.2366545454545457 9.977142857142859  L 2.570181818181818 8.667428571428571  L 2.982109090909091 9.072  L 2.570181818181818 8.668285714285716  C 2.679333777042428 8.560791630122722  2.827535079820798 8.500349361510782  2.982109090909091 8.500285714285713  L 9.963927272727272 8.500285714285713  C 10.28507637241255 8.499812828755447  10.54516399729596 8.243986077392087  10.545163636363636 7.928571428571429  L 10.545163636363636 5.814  C 10.545163636363636 5.498250918739595  10.80578275362577 5.242285714285714  11.127272727272727 5.242285714285714  C 11.448762700919684 5.242285714285714  11.709381818181818 5.498250918739595  11.709381818181818 5.814  L 11.709381818181818 7.928571428571429  C 11.709381818181818 8.875345285424217  10.927915199704657 9.642857142857142  9.963927272727272 9.642857142857142  L 3.222109090909091 9.642857142857142  L 1.0664727272727272 11.761714285714284  C 0.9572806412247293 11.869120491009141  0.8090841473642484 11.929474472560667  0.6545451151931742 11.929474472560667  C 0.3330551415462163 11.929474472560667  0.07243602428408322 11.673509268106788  0.07243602428408322 11.357760186846383  L 0.0724363636363636 2.2140000000000004  C 0.0724363636363636 1.2672261431472114  0.8539029821135243 0.4997142857142859  1.817890909090909 0.4997142857142859  Z M 5.94589090909091 3.4645714285714293  L 6.178909090909091 2.8834285714285715  C 6.2030206110489905 2.8241823408333935  6.261436300997732 2.7853285555673026  6.326399999999999 2.7853285555673026  C 6.391363699002264 2.7853285555673026  6.449779388951007 2.8241823408333926  6.473890909090908 2.8834285714285715  L 6.70690909090909 3.4645714285714284  C 6.749672727272726 3.571714285714286  6.835199999999999 3.6557142857142852  6.944290909090908 3.697714285714286  L 7.535127272727272 3.926571428571429  C 7.595450707515091 3.9502523858516883  7.635010925240563 4.007624938479918  7.635010925240563 4.071428571428571  C 7.635010925240563 4.135232204377226  7.595450707515091 4.192604757005455  7.535127272727272 4.216285714285714  L 6.944290909090908 4.445142857142858  C 6.83576745651019 4.487311562389726  6.749844499887718 4.571700180501081  6.70690909090909 4.678285714285716  L 6.473890909090908 5.258571428571429  C 6.449779388951007 5.317817659166609  6.391363699002265 5.356671444432697  6.326399999999999 5.356671444432697  C 6.261436300997732 5.356671444432697  6.203020611048991 5.317817659166607  6.178909090909091 5.25857142857143  L 5.94589090909091 4.678285714285716  C 5.902955500112281 4.571700180501081  5.817032543489811 4.487311562389727  5.708509090909091 4.445142857142859  L 5.117672727272728 4.216285714285716  C 5.0573492924849095 4.192604757005456  5.0177890747594365 4.1352322043772265  5.0177890747594365 4.071428571428572  C 5.0177890747594365 4.007624938479918  5.0573492924849095 3.950252385851689  5.117672727272728 3.9265714285714295  L 5.708509090909091 3.6977142857142864  C 5.817032543489809 3.655545580467418  5.902955500112281 3.5711569623560626  5.94589090909091 3.4645714285714293  Z M 9.182836363636364 1.3448571428571436  L 9.572072727272728 0.37799999999999984  C 9.611748603301836 0.2790391123240956  9.7090187944112 0.21398407783753867  9.817309090909092 0.21398407783753867  C 9.925599387406981 0.21398407783753867  10.022869578516346 0.2790391123240965  10.062545454545454 0.37799999999999984  L 10.451781818181818 1.3448571428571428  C 10.522991955795327 1.522755504764198  10.666151858779383 1.6636693638587987  10.84712727272727 1.7340000000000002  L 11.832436363636361 2.1162857142857145  C 12.054981818181815 2.2020000000000004  12.054981818181815 2.5122857142857145  11.832436363636361 2.5980000000000008  L 10.846254545454542 2.9794285714285724  C 10.665668535354019 3.0500433278217383  10.522882493161568 3.190900133824644  10.451781818181816 3.368571428571429  L 10.062545454545452 4.336285714285715  C 10.022869578516344 4.4352466019616195  9.925599387406978 4.500301636448176  9.817309090909088 4.500301636448176  C 9.709018794411197 4.500301636448176  9.611748603301832 4.435246601961619  9.572072727272726 4.336285714285715  L 9.182836363636362 3.367714285714287  C 9.111336520527846 3.1901981213040678  8.96823464012677 3.049651631624437  8.787490909090907 2.9794285714285724  L 7.802181818181818 2.5980000000000008  C 7.7014216416390795 2.5590326217571278  7.635183788343674 2.463499398346143  7.635183788343674 2.3571428571428585  C 7.635183788343674 2.250786315939574  7.7014216416390795 2.1552530925285875  7.802181818181818 2.1162857142857154  L 8.788363636363638 1.7340000000000009  C 8.969008462633878 1.6634728159277192  9.11182511200528 1.522585816291031  9.182836363636364 1.3448571428571436  Z " fill-rule="nonzero" fill="rgba(71, 120, 194, 1)" stroke="none" transform="matrix(1 0 0 1 131 29 )" class="fill" />
    <path d="M 1.817890909090909 0.4997142857142859  L 6.298472727272728 0.49971428571428567  C 6.619962688652654 0.49971428571428556  6.8805818059147885 0.7556794901681662  6.8805818059147885 1.0714285714285712  C 6.8805818059147885 1.387177652688976  6.619962688652654 1.6431428571428572  6.298472715005696 1.6431428571428572  L 1.817890909090909 1.6431428571428572  C 1.4968829294074404 1.6431428571428572  1.2366545454545457 1.898724305668021  1.2366545454545457 2.2139999999999995  L 1.2366545454545457 9.977142857142859  L 2.570181818181818 8.667428571428571  L 2.982109090909091 9.072  L 2.570181818181818 8.668285714285716  C 2.679333777042428 8.560791630122722  2.827535079820798 8.500349361510782  2.982109090909091 8.500285714285713  L 9.963927272727272 8.500285714285713  C 10.28507637241255 8.499812828755447  10.54516399729596 8.243986077392087  10.545163636363636 7.928571428571429  L 10.545163636363636 5.814  C 10.545163636363636 5.498250918739595  10.80578275362577 5.242285714285714  11.127272727272727 5.242285714285714  C 11.448762700919684 5.242285714285714  11.709381818181818 5.498250918739595  11.709381818181818 5.814  L 11.709381818181818 7.928571428571429  C 11.709381818181818 8.875345285424217  10.927915199704657 9.642857142857142  9.963927272727272 9.642857142857142  L 3.222109090909091 9.642857142857142  L 1.0664727272727272 11.761714285714284  C 0.9572806412247293 11.869120491009141  0.8090841473642484 11.929474472560667  0.6545451151931742 11.929474472560667  C 0.3330551415462163 11.929474472560667  0.07243602428408322 11.673509268106788  0.07243602428408322 11.357760186846383  L 0.0724363636363636 2.2140000000000004  C 0.0724363636363636 1.2672261431472114  0.8539029821135243 0.4997142857142859  1.817890909090909 0.4997142857142859  Z " stroke-width="0" stroke-dasharray="0" stroke="rgba(255, 255, 255, 0)" fill="none" transform="matrix(1 0 0 1 131 29 )" class="stroke" mask="url(#Clip3)" />
    <path d="M 5.94589090909091 3.4645714285714293  L 6.178909090909091 2.8834285714285715  C 6.2030206110489905 2.8241823408333935  6.261436300997732 2.7853285555673026  6.326399999999999 2.7853285555673026  C 6.391363699002264 2.7853285555673026  6.449779388951007 2.8241823408333926  6.473890909090908 2.8834285714285715  L 6.70690909090909 3.4645714285714284  C 6.749672727272726 3.571714285714286  6.835199999999999 3.6557142857142852  6.944290909090908 3.697714285714286  L 7.535127272727272 3.926571428571429  C 7.595450707515091 3.9502523858516883  7.635010925240563 4.007624938479918  7.635010925240563 4.071428571428571  C 7.635010925240563 4.135232204377226  7.595450707515091 4.192604757005455  7.535127272727272 4.216285714285714  L 6.944290909090908 4.445142857142858  C 6.83576745651019 4.487311562389726  6.749844499887718 4.571700180501081  6.70690909090909 4.678285714285716  L 6.473890909090908 5.258571428571429  C 6.449779388951007 5.317817659166609  6.391363699002265 5.356671444432697  6.326399999999999 5.356671444432697  C 6.261436300997732 5.356671444432697  6.203020611048991 5.317817659166607  6.178909090909091 5.25857142857143  L 5.94589090909091 4.678285714285716  C 5.902955500112281 4.571700180501081  5.817032543489811 4.487311562389727  5.708509090909091 4.445142857142859  L 5.117672727272728 4.216285714285716  C 5.0573492924849095 4.192604757005456  5.0177890747594365 4.1352322043772265  5.0177890747594365 4.071428571428572  C 5.0177890747594365 4.007624938479918  5.0573492924849095 3.950252385851689  5.117672727272728 3.9265714285714295  L 5.708509090909091 3.6977142857142864  C 5.817032543489809 3.655545580467418  5.902955500112281 3.5711569623560626  5.94589090909091 3.4645714285714293  Z " stroke-width="0" stroke-dasharray="0" stroke="rgba(255, 255, 255, 0)" fill="none" transform="matrix(1 0 0 1 131 29 )" class="stroke" mask="url(#Clip3)" />
    <path d="M 9.182836363636364 1.3448571428571436  L 9.572072727272728 0.37799999999999984  C 9.611748603301836 0.2790391123240956  9.7090187944112 0.21398407783753867  9.817309090909092 0.21398407783753867  C 9.925599387406981 0.21398407783753867  10.022869578516346 0.2790391123240965  10.062545454545454 0.37799999999999984  L 10.451781818181818 1.3448571428571428  C 10.522991955795327 1.522755504764198  10.666151858779383 1.6636693638587987  10.84712727272727 1.7340000000000002  L 11.832436363636361 2.1162857142857145  C 12.054981818181815 2.2020000000000004  12.054981818181815 2.5122857142857145  11.832436363636361 2.5980000000000008  L 10.846254545454542 2.9794285714285724  C 10.665668535354019 3.0500433278217383  10.522882493161568 3.190900133824644  10.451781818181816 3.368571428571429  L 10.062545454545452 4.336285714285715  C 10.022869578516344 4.4352466019616195  9.925599387406978 4.500301636448176  9.817309090909088 4.500301636448176  C 9.709018794411197 4.500301636448176  9.611748603301832 4.435246601961619  9.572072727272726 4.336285714285715  L 9.182836363636362 3.367714285714287  C 9.111336520527846 3.1901981213040678  8.96823464012677 3.049651631624437  8.787490909090907 2.9794285714285724  L 7.802181818181818 2.5980000000000008  C 7.7014216416390795 2.5590326217571278  7.635183788343674 2.463499398346143  7.635183788343674 2.3571428571428585  C 7.635183788343674 2.250786315939574  7.7014216416390795 2.1552530925285875  7.802181818181818 2.1162857142857154  L 8.788363636363638 1.7340000000000009  C 8.969008462633878 1.6634728159277192  9.11182511200528 1.522585816291031  9.182836363636364 1.3448571428571436  Z " stroke-width="0" stroke-dasharray="0" stroke="rgba(255, 255, 255, 0)" fill="none" transform="matrix(1 0 0 1 131 29 )" class="stroke" mask="url(#Clip3)" />
  </g>
</svg>