<?xml version="1.0" encoding="utf-8"?>
<svg version="1.1" xmlns:xlink="http://www.w3.org/1999/xlink" width="24px" height="23px" xmlns="http://www.w3.org/2000/svg">
  <defs>
    <pattern id="BGPattern" patternUnits="userSpaceOnUse" alignment="0 0" imageRepeat="None" />
    <mask fill="white" id="Clip24">
      <path d="M 23 8.799354838709677  C 23.248346425039628 7.218360641764806  21.95317891647688 5.937119665552199  20.355 5.935483870967742  L 20.25 5.935483870967742  L 20.25 3.285290322580645  C 20.247521146165745 1.471891284181606  18.76210989751207 0.0024521994919517883  16.929 0  L 4.071 0  C 2.237890102487929 0.002452199491952612  0.7524788538342564 1.4718912841816072  1 3.285290322580645  L 1 16.972516129032257  C 0.7163640543630075 17.850701151457546  1.1873620852382993 18.672260900366407  1.9665 19.094451612903228  C 2.2184587311681305 19.220931784721046  2.496958017063137 19.287012240605353  2.7795 19.28735483870968  C 3.192067122360194 19.2835094862365  3.592183180257913 19.14705790927602  3.9195 18.898580645161292  L 6.789 16.600064516129034  C 6.979537721982666 18.0176368296634  8.199414725836576 19.077988488452917  9.645 19.08258064516129  L 16.770000000000003 19.08258064516129  C 16.844420174484284 19.08187068138676  16.91650151732969 19.10828041273593  16.9725 19.156774193548387  L 20.424 21.91232258064516  C 20.916594759522958 22.299226143366973  21.591407911503694 22.368124057064616  22.1535 22.08890322580645  C 22.847463795691088 21.716958607800144  23.271297478901648 20.990824769180183  23 20.210322580645162  L 23 8.799354838709677  Z M 7.102500000000001 14.439548387096774  L 3 17.726322580645164  C 2.901214749708677 17.814406900554236  2.757150858044816 17.831627441009395  2.64 17.769354838709678  C 2.3733173659601716 17.593556497660163  2.2240096932666717 17.28849461752163  2.25 16.972516129032254  L 2.249999999999999 3.2852903225806442  C 2.251651647714326 2.2910714498985754  3.0659744004409513 1.4855048558034194  4.071 1.4838709677419355  L 16.928999999999995 1.4838709677419348  C 17.934025599559043 1.4855048558034187  18.74834835228567 2.291071449898575  18.75 3.285290322580645  L 18.749999999999996 12.188516129032259  C 18.749174376328092 13.18331443993266  17.934610315330815 13.989783508135844  16.929 13.99141935483871  L 8.383500000000002 13.99141935483871  C 7.917343275028188 13.99196041308034  7.465370277546032 14.150072998535808  7.102500000000001 14.439548387096774  Z M 21.75 8.799354838709677  L 21.75 20.210322580645162  C 21.769072148190055 20.425677373804724  21.670042063118792 20.634632145884982  21.4905 20.757870967741933  C 21.4468730773326 20.786509099712493  21.38904205211422 20.781587879390987  21.351 20.746000000000002  L 17.929499999999997 18.011225806451613  C 17.6045519588301 17.74226919496553  17.193677934273328 17.596092254792985  16.77 17.598709677419354  L 9.645 17.598709677419354  C 8.874905475021713 17.59789184102973  8.250826725915601 16.98052361610755  8.25 16.218709677419355  L 8.25 15.521290322580644  C 8.295 15.507935483870964  8.3355 15.473806451612903  8.385 15.473806451612903  L 16.929 15.473806451612903  C 18.76210989751207 15.471354252120952  20.247521146165745 14.001915167431298  20.25 12.188516129032259  L 20.25 7.419354838709677  L 20.355 7.419354838709677  C 21.125094524978284 7.4201726750993044  21.7491732740844 8.037540900021483  21.75 8.799354838709677  Z " fill-rule="evenodd" />
    </mask>
  </defs>
  <g transform="matrix(1 0 0 1 -330 -22 )">
    <path d="M 23 8.799354838709677  C 23.248346425039628 7.218360641764806  21.95317891647688 5.937119665552199  20.355 5.935483870967742  L 20.25 5.935483870967742  L 20.25 3.285290322580645  C 20.247521146165745 1.471891284181606  18.76210989751207 0.0024521994919517883  16.929 0  L 4.071 0  C 2.237890102487929 0.002452199491952612  0.7524788538342564 1.4718912841816072  1 3.285290322580645  L 1 16.972516129032257  C 0.7163640543630075 17.850701151457546  1.1873620852382993 18.672260900366407  1.9665 19.094451612903228  C 2.2184587311681305 19.220931784721046  2.496958017063137 19.287012240605353  2.7795 19.28735483870968  C 3.192067122360194 19.2835094862365  3.592183180257913 19.14705790927602  3.9195 18.898580645161292  L 6.789 16.600064516129034  C 6.979537721982666 18.0176368296634  8.199414725836576 19.077988488452917  9.645 19.08258064516129  L 16.770000000000003 19.08258064516129  C 16.844420174484284 19.08187068138676  16.91650151732969 19.10828041273593  16.9725 19.156774193548387  L 20.424 21.91232258064516  C 20.916594759522958 22.299226143366973  21.591407911503694 22.368124057064616  22.1535 22.08890322580645  C 22.847463795691088 21.716958607800144  23.271297478901648 20.990824769180183  23 20.210322580645162  L 23 8.799354838709677  Z M 7.102500000000001 14.439548387096774  L 3 17.726322580645164  C 2.901214749708677 17.814406900554236  2.757150858044816 17.831627441009395  2.64 17.769354838709678  C 2.3733173659601716 17.593556497660163  2.2240096932666717 17.28849461752163  2.25 16.972516129032254  L 2.249999999999999 3.2852903225806442  C 2.251651647714326 2.2910714498985754  3.0659744004409513 1.4855048558034194  4.071 1.4838709677419355  L 16.928999999999995 1.4838709677419348  C 17.934025599559043 1.4855048558034187  18.74834835228567 2.291071449898575  18.75 3.285290322580645  L 18.749999999999996 12.188516129032259  C 18.749174376328092 13.18331443993266  17.934610315330815 13.989783508135844  16.929 13.99141935483871  L 8.383500000000002 13.99141935483871  C 7.917343275028188 13.99196041308034  7.465370277546032 14.150072998535808  7.102500000000001 14.439548387096774  Z M 21.75 8.799354838709677  L 21.75 20.210322580645162  C 21.769072148190055 20.425677373804724  21.670042063118792 20.634632145884982  21.4905 20.757870967741933  C 21.4468730773326 20.786509099712493  21.38904205211422 20.781587879390987  21.351 20.746000000000002  L 17.929499999999997 18.011225806451613  C 17.6045519588301 17.74226919496553  17.193677934273328 17.596092254792985  16.77 17.598709677419354  L 9.645 17.598709677419354  C 8.874905475021713 17.59789184102973  8.250826725915601 16.98052361610755  8.25 16.218709677419355  L 8.25 15.521290322580644  C 8.295 15.507935483870964  8.3355 15.473806451612903  8.385 15.473806451612903  L 16.929 15.473806451612903  C 18.76210989751207 15.471354252120952  20.247521146165745 14.001915167431298  20.25 12.188516129032259  L 20.25 7.419354838709677  L 20.355 7.419354838709677  C 21.125094524978284 7.4201726750993044  21.7491732740844 8.037540900021483  21.75 8.799354838709677  Z " fill-rule="nonzero" fill="rgba(213, 153, 68, 1)" stroke="none" transform="matrix(1 0 0 1 330 22 )" class="fill" />
    <path d="M 23 8.799354838709677  C 23.248346425039628 7.218360641764806  21.95317891647688 5.937119665552199  20.355 5.935483870967742  L 20.25 5.935483870967742  L 20.25 3.285290322580645  C 20.247521146165745 1.471891284181606  18.76210989751207 0.0024521994919517883  16.929 0  L 4.071 0  C 2.237890102487929 0.002452199491952612  0.7524788538342564 1.4718912841816072  1 3.285290322580645  L 1 16.972516129032257  C 0.7163640543630075 17.850701151457546  1.1873620852382993 18.672260900366407  1.9665 19.094451612903228  C 2.2184587311681305 19.220931784721046  2.496958017063137 19.287012240605353  2.7795 19.28735483870968  C 3.192067122360194 19.2835094862365  3.592183180257913 19.14705790927602  3.9195 18.898580645161292  L 6.789 16.600064516129034  C 6.979537721982666 18.0176368296634  8.199414725836576 19.077988488452917  9.645 19.08258064516129  L 16.770000000000003 19.08258064516129  C 16.844420174484284 19.08187068138676  16.91650151732969 19.10828041273593  16.9725 19.156774193548387  L 20.424 21.91232258064516  C 20.916594759522958 22.299226143366973  21.591407911503694 22.368124057064616  22.1535 22.08890322580645  C 22.847463795691088 21.716958607800144  23.271297478901648 20.990824769180183  23 20.210322580645162  L 23 8.799354838709677  Z " stroke-width="0" stroke-dasharray="0" stroke="rgba(255, 255, 255, 0)" fill="none" transform="matrix(1 0 0 1 330 22 )" class="stroke" mask="url(#Clip24)" />
    <path d="M 7.102500000000001 14.439548387096774  L 3 17.726322580645164  C 2.901214749708677 17.814406900554236  2.757150858044816 17.831627441009395  2.64 17.769354838709678  C 2.3733173659601716 17.593556497660163  2.2240096932666717 17.28849461752163  2.25 16.972516129032254  L 2.249999999999999 3.2852903225806442  C 2.251651647714326 2.2910714498985754  3.0659744004409513 1.4855048558034194  4.071 1.4838709677419355  L 16.928999999999995 1.4838709677419348  C 17.934025599559043 1.4855048558034187  18.74834835228567 2.291071449898575  18.75 3.285290322580645  L 18.749999999999996 12.188516129032259  C 18.749174376328092 13.18331443993266  17.934610315330815 13.989783508135844  16.929 13.99141935483871  L 8.383500000000002 13.99141935483871  C 7.917343275028188 13.99196041308034  7.465370277546032 14.150072998535808  7.102500000000001 14.439548387096774  Z " stroke-width="0" stroke-dasharray="0" stroke="rgba(255, 255, 255, 0)" fill="none" transform="matrix(1 0 0 1 330 22 )" class="stroke" mask="url(#Clip24)" />
    <path d="M 21.75 8.799354838709677  L 21.75 20.210322580645162  C 21.769072148190055 20.425677373804724  21.670042063118792 20.634632145884982  21.4905 20.757870967741933  C 21.4468730773326 20.786509099712493  21.38904205211422 20.781587879390987  21.351 20.746000000000002  L 17.929499999999997 18.011225806451613  C 17.6045519588301 17.74226919496553  17.193677934273328 17.596092254792985  16.77 17.598709677419354  L 9.645 17.598709677419354  C 8.874905475021713 17.59789184102973  8.250826725915601 16.98052361610755  8.25 16.218709677419355  L 8.25 15.521290322580644  C 8.295 15.507935483870964  8.3355 15.473806451612903  8.385 15.473806451612903  L 16.929 15.473806451612903  C 18.76210989751207 15.471354252120952  20.247521146165745 14.001915167431298  20.25 12.188516129032259  L 20.25 7.419354838709677  L 20.355 7.419354838709677  C 21.125094524978284 7.4201726750993044  21.7491732740844 8.037540900021483  21.75 8.799354838709677  Z " stroke-width="0" stroke-dasharray="0" stroke="rgba(255, 255, 255, 0)" fill="none" transform="matrix(1 0 0 1 330 22 )" class="stroke" mask="url(#Clip24)" />
  </g>
</svg>