<?xml version="1.0" encoding="utf-8"?>
<svg version="1.1" xmlns:xlink="http://www.w3.org/1999/xlink" width="2px" height="8px" xmlns="http://www.w3.org/2000/svg">
  <defs>
    <pattern id="BGPattern" patternUnits="userSpaceOnUse" alignment="0 0" imageRepeat="None" />
    <mask fill="white" id="Clip25">
      <path d="M 0.1428571445312503 1.325714284375  L 0.4857142890624999 5.0285714312500005  C 0.5714285781249995 5.234285715625001  0.74285714453125 5.371428578125  1 5.37142856875  C 1.25714285546875 5.3714285593749995  1.4285714335937492 5.234285715625001  1.5142857109375 5.0285714312500005  L 1.8571428554687506 1.257142853125  C 1.8571428554687506 0.8457142843749998  1.4285714218750005 0.5714285687499998  1 0.5714285687499998  C 0.4857142890624999 0.5714285687499998  0.1428571445312503 0.9142857156249999  0.1428571445312503 1.325714284375  Z M 1.8571428554687506 6.742857146875001  C 1.8571428554687506 6.331428578125001  1.5142857109375 6.057142862500001  1 6.057142853125001  C 0.4857142890624999 6.057142853125001  0.1428571445312503 6.331428568750001  0.1428571445312503 6.742857146875001  C 0.1428571445312503 7.154285725000001  0.4857142890624999 7.428571431250001  1 7.428571431250001  C 1.5142857109375 7.428571431250001  1.8571428554687506 7.154285715625001  1.8571428554687506 6.742857146875001  Z " fill-rule="evenodd" />
    </mask>
  </defs>
  <g transform="matrix(1 0 0 1 -340 -26 )">
    <path d="M 0.1428571445312503 1.325714284375  L 0.4857142890624999 5.0285714312500005  C 0.5714285781249995 5.234285715625001  0.74285714453125 5.371428578125  1 5.37142856875  C 1.25714285546875 5.3714285593749995  1.4285714335937492 5.234285715625001  1.5142857109375 5.0285714312500005  L 1.8571428554687506 1.257142853125  C 1.8571428554687506 0.8457142843749998  1.4285714218750005 0.5714285687499998  1 0.5714285687499998  C 0.4857142890624999 0.5714285687499998  0.1428571445312503 0.9142857156249999  0.1428571445312503 1.325714284375  Z M 1.8571428554687506 6.742857146875001  C 1.8571428554687506 6.331428578125001  1.5142857109375 6.057142862500001  1 6.057142853125001  C 0.4857142890624999 6.057142853125001  0.1428571445312503 6.331428568750001  0.1428571445312503 6.742857146875001  C 0.1428571445312503 7.154285725000001  0.4857142890624999 7.428571431250001  1 7.428571431250001  C 1.5142857109375 7.428571431250001  1.8571428554687506 7.154285715625001  1.8571428554687506 6.742857146875001  Z " fill-rule="nonzero" fill="rgba(213, 153, 68, 1)" stroke="none" transform="matrix(1 0 0 1 340 26 )" class="fill" />
    <path d="M 0.1428571445312503 1.325714284375  L 0.4857142890624999 5.0285714312500005  C 0.5714285781249995 5.234285715625001  0.74285714453125 5.371428578125  1 5.37142856875  C 1.25714285546875 5.3714285593749995  1.4285714335937492 5.234285715625001  1.5142857109375 5.0285714312500005  L 1.8571428554687506 1.257142853125  C 1.8571428554687506 0.8457142843749998  1.4285714218750005 0.5714285687499998  1 0.5714285687499998  C 0.4857142890624999 0.5714285687499998  0.1428571445312503 0.9142857156249999  0.1428571445312503 1.325714284375  Z " stroke-width="0" stroke-dasharray="0" stroke="rgba(255, 255, 255, 0)" fill="none" transform="matrix(1 0 0 1 340 26 )" class="stroke" mask="url(#Clip25)" />
    <path d="M 1.8571428554687506 6.742857146875001  C 1.8571428554687506 6.331428578125001  1.5142857109375 6.057142862500001  1 6.057142853125001  C 0.4857142890624999 6.057142853125001  0.1428571445312503 6.331428568750001  0.1428571445312503 6.742857146875001  C 0.1428571445312503 7.154285725000001  0.4857142890624999 7.428571431250001  1 7.428571431250001  C 1.5142857109375 7.428571431250001  1.8571428554687506 7.154285715625001  1.8571428554687506 6.742857146875001  Z " stroke-width="0" stroke-dasharray="0" stroke="rgba(255, 255, 255, 0)" fill="none" transform="matrix(1 0 0 1 340 26 )" class="stroke" mask="url(#Clip25)" />
  </g>
</svg>