<?xml version="1.0" encoding="utf-8"?>
<svg version="1.1" xmlns:xlink="http://www.w3.org/1999/xlink" width="19px" height="21px" xmlns="http://www.w3.org/2000/svg">
  <defs>
    <pattern id="BGPattern" patternUnits="userSpaceOnUse" alignment="0 0" imageRepeat="None" />
    <mask fill="white" id="Clip27">
      <path d="M 17.4700000078125 0.9899999996316963  C 17.490000000000002 1.0699999917894345  17.500000007812503 1.1599999917559525  17.5000000078125 1.2500000151599706  L 17.5000000078125 11.00000001153274  L 16.0000000078125 11.00000001153274  L 16.0000000078125 1.4999999994419646  L 2 1.4999999994419646  L 2 18.500000008742564  L 7.5 18.500000008742564  L 7.5 20.00000000818452  L 1.7500000078125 20.00000000818452  C 1.6600000078124992 20.00000000818452  1.5700000078124994 19.990000000375748  1.4899999921874993 19.970000008195687  C 1.4100000000000001 19.950000016015625  1.329999984375 19.930000000398064  1.2599999999999998 19.900000000409225  C 1.1099999999999994 19.829999992622767  0.9799999921874999 19.739999992656248  0.8599999921874999 19.63000000050967  C 0.7999999921874998 19.570000000531994  0.75 19.510000000554314  0.7000000078125003 19.439999992767856  C 0.6600000000000001 19.369999984981398  0.6200000156250001 19.300000000632437  0.5899999921875003 19.22999999284598  C 0.5599999921875005 19.15999998505952  0.5400000000000005 19.079999992901783  0.5200000078125 19.00000000074405  C 0.500000015625 18.92000000858631  0.500000015625 18.83000000861979  0.4999999921875 18.749999993024556  L 0.4999999921875 1.2500000151599706  C 0.4999999921875 1.1600000151934526  0.4999999921875 1.0700000152269342  0.5200000078125 0.9899999996316967  C 0.54 0.9100000074739589  0.5600000156250005 0.8299999918787204  0.5899999921875003 0.7600000075297622  C 0.6199999921875001 0.689999999743304  0.6600000000000006 0.6200000153943458  0.7000000078125003 0.5500000076078867  C 0.7959258056309357 0.41428844893020106  0.9142884412718266 0.29592581333334383  1.0500000000000007 0.20000001555059496  C 1.1200000078125 0.16000000775297632  1.1899999921875004 0.1200000233928572  1.2600000000000007 0.08999999996651817  C 1.330000007812501 0.05999999997767863  1.4100000000000001 0.04000000779761951  1.4899999921875002 0.020000015617559496  C 1.5699999843750003 0  1.6599999843750002 0  1.7500000078125009 0  L 16.2499999921875 0  C 16.410000000000004 0  16.579999992187503 0.029999999988839093  16.7299999921875 0.08999999996651817  C 16.8 0.11999999995535726  16.869999984375003 0.16000000775297632  16.939999992187502 0.20000001555059496  C 17.01 0.2500000077194936  17.07 0.30000002332589265  17.130000000000003 0.3599999998660713  C 17.239999992187503 0.47999999982142855  17.329999992187503 0.6100000075855653  17.400000000000002 0.7600000075297617  C 17.43 0.8300000153162198  17.4499999921875 0.9100000074739586  17.4700000078125 0.9899999996316963  Z M 13.999999992187501 4.250000014043901  L 13.999999992187501 5.750000013485865  L 4.000000007812501 5.750000013485865  L 4.000000007812501 4.250000014043901  L 13.999999992187501 4.250000014043901  Z M 4.000000007812501 9.74999999637277  L 4.000000007812501 8.249999996930805  L 10.999999992187501 8.249999996930805  L 10.999999992187501 9.74999999637277  L 4.000000007812501 9.74999999637277  Z M 16.7899999921875 20.20000000029762  L 16.7899999921875 12.650000010918902  L 18.3499999921875 12.650000010918902  L 18.3499999921875 20.20000000029762  L 16.7899999921875 20.20000000029762  Z " fill-rule="evenodd" />
    </mask>
  </defs>
  <g transform="matrix(1 0 0 1 -25 -22 )">
    <path d="M 17.4700000078125 0.9899999996316963  C 17.490000000000002 1.0699999917894345  17.500000007812503 1.1599999917559525  17.5000000078125 1.2500000151599706  L 17.5000000078125 11.00000001153274  L 16.0000000078125 11.00000001153274  L 16.0000000078125 1.4999999994419646  L 2 1.4999999994419646  L 2 18.500000008742564  L 7.5 18.500000008742564  L 7.5 20.00000000818452  L 1.7500000078125 20.00000000818452  C 1.6600000078124992 20.00000000818452  1.5700000078124994 19.990000000375748  1.4899999921874993 19.970000008195687  C 1.4100000000000001 19.950000016015625  1.329999984375 19.930000000398064  1.2599999999999998 19.900000000409225  C 1.1099999999999994 19.829999992622767  0.9799999921874999 19.739999992656248  0.8599999921874999 19.63000000050967  C 0.7999999921874998 19.570000000531994  0.75 19.510000000554314  0.7000000078125003 19.439999992767856  C 0.6600000000000001 19.369999984981398  0.6200000156250001 19.300000000632437  0.5899999921875003 19.22999999284598  C 0.5599999921875005 19.15999998505952  0.5400000000000005 19.079999992901783  0.5200000078125 19.00000000074405  C 0.500000015625 18.92000000858631  0.500000015625 18.83000000861979  0.4999999921875 18.749999993024556  L 0.4999999921875 1.2500000151599706  C 0.4999999921875 1.1600000151934526  0.4999999921875 1.0700000152269342  0.5200000078125 0.9899999996316967  C 0.54 0.9100000074739589  0.5600000156250005 0.8299999918787204  0.5899999921875003 0.7600000075297622  C 0.6199999921875001 0.689999999743304  0.6600000000000006 0.6200000153943458  0.7000000078125003 0.5500000076078867  C 0.7959258056309357 0.41428844893020106  0.9142884412718266 0.29592581333334383  1.0500000000000007 0.20000001555059496  C 1.1200000078125 0.16000000775297632  1.1899999921875004 0.1200000233928572  1.2600000000000007 0.08999999996651817  C 1.330000007812501 0.05999999997767863  1.4100000000000001 0.04000000779761951  1.4899999921875002 0.020000015617559496  C 1.5699999843750003 0  1.6599999843750002 0  1.7500000078125009 0  L 16.2499999921875 0  C 16.410000000000004 0  16.579999992187503 0.029999999988839093  16.7299999921875 0.08999999996651817  C 16.8 0.11999999995535726  16.869999984375003 0.16000000775297632  16.939999992187502 0.20000001555059496  C 17.01 0.2500000077194936  17.07 0.30000002332589265  17.130000000000003 0.3599999998660713  C 17.239999992187503 0.47999999982142855  17.329999992187503 0.6100000075855653  17.400000000000002 0.7600000075297617  C 17.43 0.8300000153162198  17.4499999921875 0.9100000074739586  17.4700000078125 0.9899999996316963  Z M 13.999999992187501 4.250000014043901  L 13.999999992187501 5.750000013485865  L 4.000000007812501 5.750000013485865  L 4.000000007812501 4.250000014043901  L 13.999999992187501 4.250000014043901  Z M 4.000000007812501 9.74999999637277  L 4.000000007812501 8.249999996930805  L 10.999999992187501 8.249999996930805  L 10.999999992187501 9.74999999637277  L 4.000000007812501 9.74999999637277  Z M 16.7899999921875 20.20000000029762  L 16.7899999921875 12.650000010918902  L 18.3499999921875 12.650000010918902  L 18.3499999921875 20.20000000029762  L 16.7899999921875 20.20000000029762  Z " fill-rule="nonzero" fill="rgba(213, 153, 68, 1)" stroke="none" transform="matrix(1 0 0 1 25 22 )" class="fill" />
    <path d="M 17.4700000078125 0.9899999996316963  C 17.490000000000002 1.0699999917894345  17.500000007812503 1.1599999917559525  17.5000000078125 1.2500000151599706  L 17.5000000078125 11.00000001153274  L 16.0000000078125 11.00000001153274  L 16.0000000078125 1.4999999994419646  L 2 1.4999999994419646  L 2 18.500000008742564  L 7.5 18.500000008742564  L 7.5 20.00000000818452  L 1.7500000078125 20.00000000818452  C 1.6600000078124992 20.00000000818452  1.5700000078124994 19.990000000375748  1.4899999921874993 19.970000008195687  C 1.4100000000000001 19.950000016015625  1.329999984375 19.930000000398064  1.2599999999999998 19.900000000409225  C 1.1099999999999994 19.829999992622767  0.9799999921874999 19.739999992656248  0.8599999921874999 19.63000000050967  C 0.7999999921874998 19.570000000531994  0.75 19.510000000554314  0.7000000078125003 19.439999992767856  C 0.6600000000000001 19.369999984981398  0.6200000156250001 19.300000000632437  0.5899999921875003 19.22999999284598  C 0.5599999921875005 19.15999998505952  0.5400000000000005 19.079999992901783  0.5200000078125 19.00000000074405  C 0.500000015625 18.92000000858631  0.500000015625 18.83000000861979  0.4999999921875 18.749999993024556  L 0.4999999921875 1.2500000151599706  C 0.4999999921875 1.1600000151934526  0.4999999921875 1.0700000152269342  0.5200000078125 0.9899999996316967  C 0.54 0.9100000074739589  0.5600000156250005 0.8299999918787204  0.5899999921875003 0.7600000075297622  C 0.6199999921875001 0.689999999743304  0.6600000000000006 0.6200000153943458  0.7000000078125003 0.5500000076078867  C 0.7959258056309357 0.41428844893020106  0.9142884412718266 0.29592581333334383  1.0500000000000007 0.20000001555059496  C 1.1200000078125 0.16000000775297632  1.1899999921875004 0.1200000233928572  1.2600000000000007 0.08999999996651817  C 1.330000007812501 0.05999999997767863  1.4100000000000001 0.04000000779761951  1.4899999921875002 0.020000015617559496  C 1.5699999843750003 0  1.6599999843750002 0  1.7500000078125009 0  L 16.2499999921875 0  C 16.410000000000004 0  16.579999992187503 0.029999999988839093  16.7299999921875 0.08999999996651817  C 16.8 0.11999999995535726  16.869999984375003 0.16000000775297632  16.939999992187502 0.20000001555059496  C 17.01 0.2500000077194936  17.07 0.30000002332589265  17.130000000000003 0.3599999998660713  C 17.239999992187503 0.47999999982142855  17.329999992187503 0.6100000075855653  17.400000000000002 0.7600000075297617  C 17.43 0.8300000153162198  17.4499999921875 0.9100000074739586  17.4700000078125 0.9899999996316963  Z " stroke-width="0" stroke-dasharray="0" stroke="rgba(255, 255, 255, 0)" fill="none" transform="matrix(1 0 0 1 25 22 )" class="stroke" mask="url(#Clip27)" />
    <path d="M 13.999999992187501 4.250000014043901  L 13.999999992187501 5.750000013485865  L 4.000000007812501 5.750000013485865  L 4.000000007812501 4.250000014043901  L 13.999999992187501 4.250000014043901  Z " stroke-width="0" stroke-dasharray="0" stroke="rgba(255, 255, 255, 0)" fill="none" transform="matrix(1 0 0 1 25 22 )" class="stroke" mask="url(#Clip27)" />
    <path d="M 4.000000007812501 9.74999999637277  L 4.000000007812501 8.249999996930805  L 10.999999992187501 8.249999996930805  L 10.999999992187501 9.74999999637277  L 4.000000007812501 9.74999999637277  Z " stroke-width="0" stroke-dasharray="0" stroke="rgba(255, 255, 255, 0)" fill="none" transform="matrix(1 0 0 1 25 22 )" class="stroke" mask="url(#Clip27)" />
    <path d="M 16.7899999921875 20.20000000029762  L 16.7899999921875 12.650000010918902  L 18.3499999921875 12.650000010918902  L 18.3499999921875 20.20000000029762  L 16.7899999921875 20.20000000029762  Z " stroke-width="0" stroke-dasharray="0" stroke="rgba(255, 255, 255, 0)" fill="none" transform="matrix(1 0 0 1 25 22 )" class="stroke" mask="url(#Clip27)" />
  </g>
</svg>