<?xml version="1.0" encoding="utf-8"?>
<svg version="1.1" xmlns:xlink="http://www.w3.org/1999/xlink" width="9px" height="9px" xmlns="http://www.w3.org/2000/svg">
  <defs>
    <pattern id="BGPattern" patternUnits="userSpaceOnUse" alignment="0 0" imageRepeat="None" />
    <mask fill="white" id="Clip28">
      <path d="M 4.48 0.6500000078125012  L 5.2799999921874985 0.6500000078125012  L 8.170000000000002 8.200000000000003  L 6.490000000000002 8.200000000000003  L 5.840000007812499 6.410000007812499  L 4.48 6.410000007812499  L 4.48 5.050000000000001  L 5.339999992187501 5.050000000000001  L 4.48 2.650000000000002  L 4.48 0.6500000078125012  Z M 4.48 6.410000007812499  L 3.119999992187502 6.410000007812499  L 2.480000007812503 8.200000000000003  L 0.7900000000000027 8.200000000000003  L 3.6299999921875 0.7799999921875003  L 3.6800000078125006 0.6500000078125012  L 4.48 0.6500000078125012  L 4.48 2.650000000000002  L 3.6200000078125 5.050000000000001  L 4.48 5.050000000000001  L 4.48 6.410000007812499  Z " fill-rule="evenodd" />
    </mask>
  </defs>
  <g transform="matrix(1 0 0 1 -33 -34 )">
    <path d="M 4.48 0.6500000078125012  L 5.2799999921874985 0.6500000078125012  L 8.170000000000002 8.200000000000003  L 6.490000000000002 8.200000000000003  L 5.840000007812499 6.410000007812499  L 4.48 6.410000007812499  L 4.48 5.050000000000001  L 5.339999992187501 5.050000000000001  L 4.48 2.650000000000002  L 4.48 0.6500000078125012  Z M 4.48 6.410000007812499  L 3.119999992187502 6.410000007812499  L 2.480000007812503 8.200000000000003  L 0.7900000000000027 8.200000000000003  L 3.6299999921875 0.7799999921875003  L 3.6800000078125006 0.6500000078125012  L 4.48 0.6500000078125012  L 4.48 2.650000000000002  L 3.6200000078125 5.050000000000001  L 4.48 5.050000000000001  L 4.48 6.410000007812499  Z " fill-rule="nonzero" fill="rgba(213, 153, 68, 1)" stroke="none" transform="matrix(1 0 0 1 33 34 )" class="fill" />
    <path d="M 4.48 0.6500000078125012  L 5.2799999921874985 0.6500000078125012  L 8.170000000000002 8.200000000000003  L 6.490000000000002 8.200000000000003  L 5.840000007812499 6.410000007812499  L 4.48 6.410000007812499  L 4.48 5.050000000000001  L 5.339999992187501 5.050000000000001  L 4.48 2.650000000000002  L 4.48 0.6500000078125012  Z " stroke-width="0" stroke-dasharray="0" stroke="rgba(255, 255, 255, 0)" fill="none" transform="matrix(1 0 0 1 33 34 )" class="stroke" mask="url(#Clip28)" />
    <path d="M 4.48 6.410000007812499  L 3.119999992187502 6.410000007812499  L 2.480000007812503 8.200000000000003  L 0.7900000000000027 8.200000000000003  L 3.6299999921875 0.7799999921875003  L 3.6800000078125006 0.6500000078125012  L 4.48 0.6500000078125012  L 4.48 2.650000000000002  L 3.6200000078125 5.050000000000001  L 4.48 5.050000000000001  L 4.48 6.410000007812499  Z " stroke-width="0" stroke-dasharray="0" stroke="rgba(255, 255, 255, 0)" fill="none" transform="matrix(1 0 0 1 33 34 )" class="stroke" mask="url(#Clip28)" />
  </g>
</svg>