<?xml version="1.0" encoding="utf-8"?>
<svg version="1.1" xmlns:xlink="http://www.w3.org/1999/xlink" width="21px" height="17px" xmlns="http://www.w3.org/2000/svg">
  <defs>
    <pattern id="BGPattern" patternUnits="userSpaceOnUse" alignment="0 0" imageRepeat="None" />
    <mask fill="white" id="Clip29">
      <path d="M 19.003500000000006 13.026434782608694  C 18.81901582926444 12.846262537014839  18.717620278631536 12.599386413734733  18.723 12.343478260869563  L 18.723 6.675826086956522  L 10.8765 10.878521739130434  C 10.301880893680528 11.19925220312578  9.598619106319472 11.19925220312578  9.024 10.878521739130434  L 0.7874999999999992 6.4585217391304335  C 0.6269648802989076 6.380009531722431  0.49494985539193825 6.254554259605868  0.4094999999999992 6.099304347826086  C 0.3347491931448691 5.950020596728162  0.297210342922569 5.785317680326963  0.29999999999999927 5.6188695652173895  C 0.29999999999999927 5.441478260869564  0.3359999999999993 5.281826086956521  0.4094999999999996 5.1384347826086945  C 0.49470432375991463 4.98263594724307  0.6267444250159092 4.856640469900106  0.7874999999999992 4.777739130434782  L 9.024 0.3577391304347813  C 9.171 0.27939130434782483  9.321 0.21878260869565105  9.4755 0.17886956521739064  C 9.948326524307706 0.05405946778014546  10.452067497569187 0.11890499914248386  10.8765 0.3592173913043464  L 20.161499999999997 5.354260869565216  C 20.31997905302926 5.430804794539519  20.451616326420073 5.552297488545482  20.5395 5.703130434782607  C 20.6295 5.855391304347824  20.6745 6.019478260869564  20.673000000000002 6.195391304347824  L 20.673000000000002 12.343478260869567  C 20.67933036526566 12.599992359134713  20.577820227817988 12.847682444184896  20.392500000000002 13.027913043478259  C 20.2096690891171 13.210457118177807  19.958161409264534 13.310030446965337  19.698 13.302869565217389  C 19.437648147489636 13.309464019428159  19.186177412519015 13.209370055491444  19.003500000000006 13.026434782608694  Z M 9.949499999999995 16.881739130434784  C 9.625228416202457 16.881736862366136  9.3064467457589 16.799250336126352  9.024 16.642260869565217  L 4.148999999999999 14.047913043478262  C 3.5160232913861904 13.70826994155843  3.123178608788134 13.053745854380523  3.1259999999999986 12.343478260869563  L 3.1259999999999986 8.69217391304348  L 9.024 11.837913043478261  C 9.59861910631947 12.158643507473608  10.30188089368053 12.158643507473608  10.8765 11.837913043478261  L 16.772999999999996 8.69217391304348  L 16.772999999999996 12.343478260869567  C 16.77582139121186 13.053745854380525  16.382976708613807 13.708269941558433  15.749999999999998 14.047913043478264  L 10.874999999999996 16.64226086956522  C 10.593761635917065 16.802167435782845  10.274173179326036 16.88486272241538  9.949499999999995 16.881739130434784  Z " fill-rule="evenodd" />
    </mask>
  </defs>
  <g transform="matrix(1 0 0 1 -258 -25 )">
    <path d="M 19.003500000000006 13.026434782608694  C 18.81901582926444 12.846262537014839  18.717620278631536 12.599386413734733  18.723 12.343478260869563  L 18.723 6.675826086956522  L 10.8765 10.878521739130434  C 10.301880893680528 11.19925220312578  9.598619106319472 11.19925220312578  9.024 10.878521739130434  L 0.7874999999999992 6.4585217391304335  C 0.6269648802989076 6.380009531722431  0.49494985539193825 6.254554259605868  0.4094999999999992 6.099304347826086  C 0.3347491931448691 5.950020596728162  0.297210342922569 5.785317680326963  0.29999999999999927 5.6188695652173895  C 0.29999999999999927 5.441478260869564  0.3359999999999993 5.281826086956521  0.4094999999999996 5.1384347826086945  C 0.49470432375991463 4.98263594724307  0.6267444250159092 4.856640469900106  0.7874999999999992 4.777739130434782  L 9.024 0.3577391304347813  C 9.171 0.27939130434782483  9.321 0.21878260869565105  9.4755 0.17886956521739064  C 9.948326524307706 0.05405946778014546  10.452067497569187 0.11890499914248386  10.8765 0.3592173913043464  L 20.161499999999997 5.354260869565216  C 20.31997905302926 5.430804794539519  20.451616326420073 5.552297488545482  20.5395 5.703130434782607  C 20.6295 5.855391304347824  20.6745 6.019478260869564  20.673000000000002 6.195391304347824  L 20.673000000000002 12.343478260869567  C 20.67933036526566 12.599992359134713  20.577820227817988 12.847682444184896  20.392500000000002 13.027913043478259  C 20.2096690891171 13.210457118177807  19.958161409264534 13.310030446965337  19.698 13.302869565217389  C 19.437648147489636 13.309464019428159  19.186177412519015 13.209370055491444  19.003500000000006 13.026434782608694  Z M 9.949499999999995 16.881739130434784  C 9.625228416202457 16.881736862366136  9.3064467457589 16.799250336126352  9.024 16.642260869565217  L 4.148999999999999 14.047913043478262  C 3.5160232913861904 13.70826994155843  3.123178608788134 13.053745854380523  3.1259999999999986 12.343478260869563  L 3.1259999999999986 8.69217391304348  L 9.024 11.837913043478261  C 9.59861910631947 12.158643507473608  10.30188089368053 12.158643507473608  10.8765 11.837913043478261  L 16.772999999999996 8.69217391304348  L 16.772999999999996 12.343478260869567  C 16.77582139121186 13.053745854380525  16.382976708613807 13.708269941558433  15.749999999999998 14.047913043478264  L 10.874999999999996 16.64226086956522  C 10.593761635917065 16.802167435782845  10.274173179326036 16.88486272241538  9.949499999999995 16.881739130434784  Z " fill-rule="nonzero" fill="rgba(213, 153, 68, 1)" stroke="none" transform="matrix(1 0 0 1 258 25 )" class="fill" />
    <path d="M 19.003500000000006 13.026434782608694  C 18.81901582926444 12.846262537014839  18.717620278631536 12.599386413734733  18.723 12.343478260869563  L 18.723 6.675826086956522  L 10.8765 10.878521739130434  C 10.301880893680528 11.19925220312578  9.598619106319472 11.19925220312578  9.024 10.878521739130434  L 0.7874999999999992 6.4585217391304335  C 0.6269648802989076 6.380009531722431  0.49494985539193825 6.254554259605868  0.4094999999999992 6.099304347826086  C 0.3347491931448691 5.950020596728162  0.297210342922569 5.785317680326963  0.29999999999999927 5.6188695652173895  C 0.29999999999999927 5.441478260869564  0.3359999999999993 5.281826086956521  0.4094999999999996 5.1384347826086945  C 0.49470432375991463 4.98263594724307  0.6267444250159092 4.856640469900106  0.7874999999999992 4.777739130434782  L 9.024 0.3577391304347813  C 9.171 0.27939130434782483  9.321 0.21878260869565105  9.4755 0.17886956521739064  C 9.948326524307706 0.05405946778014546  10.452067497569187 0.11890499914248386  10.8765 0.3592173913043464  L 20.161499999999997 5.354260869565216  C 20.31997905302926 5.430804794539519  20.451616326420073 5.552297488545482  20.5395 5.703130434782607  C 20.6295 5.855391304347824  20.6745 6.019478260869564  20.673000000000002 6.195391304347824  L 20.673000000000002 12.343478260869567  C 20.67933036526566 12.599992359134713  20.577820227817988 12.847682444184896  20.392500000000002 13.027913043478259  C 20.2096690891171 13.210457118177807  19.958161409264534 13.310030446965337  19.698 13.302869565217389  C 19.437648147489636 13.309464019428159  19.186177412519015 13.209370055491444  19.003500000000006 13.026434782608694  Z " stroke-width="0" stroke-dasharray="0" stroke="rgba(255, 255, 255, 0)" fill="none" transform="matrix(1 0 0 1 258 25 )" class="stroke" mask="url(#Clip29)" />
    <path d="M 9.949499999999995 16.881739130434784  C 9.625228416202457 16.881736862366136  9.3064467457589 16.799250336126352  9.024 16.642260869565217  L 4.148999999999999 14.047913043478262  C 3.5160232913861904 13.70826994155843  3.123178608788134 13.053745854380523  3.1259999999999986 12.343478260869563  L 3.1259999999999986 8.69217391304348  L 9.024 11.837913043478261  C 9.59861910631947 12.158643507473608  10.30188089368053 12.158643507473608  10.8765 11.837913043478261  L 16.772999999999996 8.69217391304348  L 16.772999999999996 12.343478260869567  C 16.77582139121186 13.053745854380525  16.382976708613807 13.708269941558433  15.749999999999998 14.047913043478264  L 10.874999999999996 16.64226086956522  C 10.593761635917065 16.802167435782845  10.274173179326036 16.88486272241538  9.949499999999995 16.881739130434784  Z " stroke-width="0" stroke-dasharray="0" stroke="rgba(255, 255, 255, 0)" fill="none" transform="matrix(1 0 0 1 258 25 )" class="stroke" mask="url(#Clip29)" />
  </g>
</svg>