<?xml version="1.0" encoding="utf-8"?>
<svg version="1.1" xmlns:xlink="http://www.w3.org/1999/xlink" width="11px" height="13px" xmlns="http://www.w3.org/2000/svg">
  <defs>
    <pattern id="BGPattern" patternUnits="userSpaceOnUse" alignment="0 0" imageRepeat="None" />
    <mask fill="white" id="Clip4">
      <path d="M 10.631696428571423 13  C 9.878720238095234 12.498437499999998  9.3860119047619 11.665625  9.386011904761904 10.721874999999994  C 9.386011904761904 9.632812499999995  10.042410714285715 8.690624999999995  10.998363095238094 8.237499999999997  C 10.865773809523809 8.167187499999997  10.777380952380952 8.143749999999995  10.777380952380952 8.143749999999995  L 8.264732142857142 7.1374999999999975  L 8.163244047619045 8.124999999999996  C 8.107589285714285 8.284374999999997  7.091071428571428 11.548437499999997  7.091071428571428 11.548437499999997  C 7.073065476190475 10.471874999999997  6.500148809523807 9.235937499999997  6.500148809523807 9.235937499999997  C 6.4084821428571415 9.095312499999997  6.814434523809522 8.671874999999996  6.814434523809522 8.671874999999996  C 6.740773809523808 8.478124999999999  6.388839285714284 8.142187499999999  6.388839285714284 8.142187499999999  C 6.845535714285712 7.932812499999998  7.876785714285713 7.017187499999998  7.904613095238093 6.992187499999998  L 7.901339285714283 6.990624999999998  L 7.75238095238095 6.299999999999998  C 8.12395833333333 5.839062499999998  8.217261904761902 5.042187499999999  8.217261904761902 5.042187499999999  C 8.328571428571424 5.059374999999999  8.53318452380952 4.989062499999999  8.744345238095235 4.332812499999999  C 8.95550595238095 3.6765625  8.588839285714283 3.5531250000000005  8.588839285714283 3.5531250000000005  C 9.201041666666663 1.3375000000000015  7.809672619047615 0.6453125000000021  7.809672619047615 0.6453125000000021  C 4.968005952380949 -0.949999999999997  4.2624999999999975 1.0703125000000016  4.2624999999999975 1.0703125000000016  C 3.6568452380952348 1.4187500000000017  3.5913690476190445 2.1500000000000012  3.6502976190476164 2.7234375000000006  C 3.6404761904761873 2.9296875  3.674851190476188 3.1968750000000004  3.768154761904759 3.5390625  C 3.750148809523806 3.55  3.7337797619047586 3.5640625  3.720684523809521 3.5796875  C 3.6273809523809497 3.6437500000000007  3.457142857142854 3.8359374999999996  3.6159226190476166 4.33125  C 3.8270833333333307 4.9875  4.031696428571426 5.0578125  4.14300595238095 5.0406249999999995  C 4.14300595238095 5.0406249999999995  4.2363095238095205 5.839062499999999  4.6078869047619015 6.298437499999999  L 4.458928571428569 6.989062499999998  C 4.462202380952378 6.992187499999999  5.513095238095236 7.928124999999999  5.974702380952377 8.140625  C 5.974702380952377 8.140625  5.622767857142854 8.4765625  5.549107142857139 8.670312499999998  C 5.549107142857139 8.670312499999998  5.956696428571424 9.093749999999998  5.863392857142854 9.234374999999998  C 5.863392857142854 9.234374999999998  5.290476190476186 10.470312499999999  5.272470238095234 11.546874999999996  C 5.272470238095234 11.546874999999996  4.255952380952376 8.28125  4.200297619047615 8.123437499999998  L 4.0971726190476145 7.134375  L 1.5812499999999956 8.1421875  C 1.5812499999999956 8.1421875  0.33720238095237665 8.4796875  0.2258928571428529 10.321874999999999  L 0.018005952380948098 12.556249999999997  C 0.018005952380948098 12.556249999999997  0.0032738095238051507 12.921874999999996  0.4599702380952338 12.989062499999998  L 0.47142857142856714 13  L 10.631696428571423 13  Z " fill-rule="evenodd" />
    </mask>
  </defs>
  <g transform="matrix(1 0 0 1 -113 -198 )">
    <path d="M 10.631696428571423 13  C 9.878720238095234 12.498437499999998  9.3860119047619 11.665625  9.386011904761904 10.721874999999994  C 9.386011904761904 9.632812499999995  10.042410714285715 8.690624999999995  10.998363095238094 8.237499999999997  C 10.865773809523809 8.167187499999997  10.777380952380952 8.143749999999995  10.777380952380952 8.143749999999995  L 8.264732142857142 7.1374999999999975  L 8.163244047619045 8.124999999999996  C 8.107589285714285 8.284374999999997  7.091071428571428 11.548437499999997  7.091071428571428 11.548437499999997  C 7.073065476190475 10.471874999999997  6.500148809523807 9.235937499999997  6.500148809523807 9.235937499999997  C 6.4084821428571415 9.095312499999997  6.814434523809522 8.671874999999996  6.814434523809522 8.671874999999996  C 6.740773809523808 8.478124999999999  6.388839285714284 8.142187499999999  6.388839285714284 8.142187499999999  C 6.845535714285712 7.932812499999998  7.876785714285713 7.017187499999998  7.904613095238093 6.992187499999998  L 7.901339285714283 6.990624999999998  L 7.75238095238095 6.299999999999998  C 8.12395833333333 5.839062499999998  8.217261904761902 5.042187499999999  8.217261904761902 5.042187499999999  C 8.328571428571424 5.059374999999999  8.53318452380952 4.989062499999999  8.744345238095235 4.332812499999999  C 8.95550595238095 3.6765625  8.588839285714283 3.5531250000000005  8.588839285714283 3.5531250000000005  C 9.201041666666663 1.3375000000000015  7.809672619047615 0.6453125000000021  7.809672619047615 0.6453125000000021  C 4.968005952380949 -0.949999999999997  4.2624999999999975 1.0703125000000016  4.2624999999999975 1.0703125000000016  C 3.6568452380952348 1.4187500000000017  3.5913690476190445 2.1500000000000012  3.6502976190476164 2.7234375000000006  C 3.6404761904761873 2.9296875  3.674851190476188 3.1968750000000004  3.768154761904759 3.5390625  C 3.750148809523806 3.55  3.7337797619047586 3.5640625  3.720684523809521 3.5796875  C 3.6273809523809497 3.6437500000000007  3.457142857142854 3.8359374999999996  3.6159226190476166 4.33125  C 3.8270833333333307 4.9875  4.031696428571426 5.0578125  4.14300595238095 5.0406249999999995  C 4.14300595238095 5.0406249999999995  4.2363095238095205 5.839062499999999  4.6078869047619015 6.298437499999999  L 4.458928571428569 6.989062499999998  C 4.462202380952378 6.992187499999999  5.513095238095236 7.928124999999999  5.974702380952377 8.140625  C 5.974702380952377 8.140625  5.622767857142854 8.4765625  5.549107142857139 8.670312499999998  C 5.549107142857139 8.670312499999998  5.956696428571424 9.093749999999998  5.863392857142854 9.234374999999998  C 5.863392857142854 9.234374999999998  5.290476190476186 10.470312499999999  5.272470238095234 11.546874999999996  C 5.272470238095234 11.546874999999996  4.255952380952376 8.28125  4.200297619047615 8.123437499999998  L 4.0971726190476145 7.134375  L 1.5812499999999956 8.1421875  C 1.5812499999999956 8.1421875  0.33720238095237665 8.4796875  0.2258928571428529 10.321874999999999  L 0.018005952380948098 12.556249999999997  C 0.018005952380948098 12.556249999999997  0.0032738095238051507 12.921874999999996  0.4599702380952338 12.989062499999998  L 0.47142857142856714 13  L 10.631696428571423 13  Z " fill-rule="nonzero" fill="rgba(71, 120, 194, 1)" stroke="none" transform="matrix(1 0 0 1 113 198 )" class="fill" />
    <path d="M 10.631696428571423 13  C 9.878720238095234 12.498437499999998  9.3860119047619 11.665625  9.386011904761904 10.721874999999994  C 9.386011904761904 9.632812499999995  10.042410714285715 8.690624999999995  10.998363095238094 8.237499999999997  C 10.865773809523809 8.167187499999997  10.777380952380952 8.143749999999995  10.777380952380952 8.143749999999995  L 8.264732142857142 7.1374999999999975  L 8.163244047619045 8.124999999999996  C 8.107589285714285 8.284374999999997  7.091071428571428 11.548437499999997  7.091071428571428 11.548437499999997  C 7.073065476190475 10.471874999999997  6.500148809523807 9.235937499999997  6.500148809523807 9.235937499999997  C 6.4084821428571415 9.095312499999997  6.814434523809522 8.671874999999996  6.814434523809522 8.671874999999996  C 6.740773809523808 8.478124999999999  6.388839285714284 8.142187499999999  6.388839285714284 8.142187499999999  C 6.845535714285712 7.932812499999998  7.876785714285713 7.017187499999998  7.904613095238093 6.992187499999998  L 7.901339285714283 6.990624999999998  L 7.75238095238095 6.299999999999998  C 8.12395833333333 5.839062499999998  8.217261904761902 5.042187499999999  8.217261904761902 5.042187499999999  C 8.328571428571424 5.059374999999999  8.53318452380952 4.989062499999999  8.744345238095235 4.332812499999999  C 8.95550595238095 3.6765625  8.588839285714283 3.5531250000000005  8.588839285714283 3.5531250000000005  C 9.201041666666663 1.3375000000000015  7.809672619047615 0.6453125000000021  7.809672619047615 0.6453125000000021  C 4.968005952380949 -0.949999999999997  4.2624999999999975 1.0703125000000016  4.2624999999999975 1.0703125000000016  C 3.6568452380952348 1.4187500000000017  3.5913690476190445 2.1500000000000012  3.6502976190476164 2.7234375000000006  C 3.6404761904761873 2.9296875  3.674851190476188 3.1968750000000004  3.768154761904759 3.5390625  C 3.750148809523806 3.55  3.7337797619047586 3.5640625  3.720684523809521 3.5796875  C 3.6273809523809497 3.6437500000000007  3.457142857142854 3.8359374999999996  3.6159226190476166 4.33125  C 3.8270833333333307 4.9875  4.031696428571426 5.0578125  4.14300595238095 5.0406249999999995  C 4.14300595238095 5.0406249999999995  4.2363095238095205 5.839062499999999  4.6078869047619015 6.298437499999999  L 4.458928571428569 6.989062499999998  C 4.462202380952378 6.992187499999999  5.513095238095236 7.928124999999999  5.974702380952377 8.140625  C 5.974702380952377 8.140625  5.622767857142854 8.4765625  5.549107142857139 8.670312499999998  C 5.549107142857139 8.670312499999998  5.956696428571424 9.093749999999998  5.863392857142854 9.234374999999998  C 5.863392857142854 9.234374999999998  5.290476190476186 10.470312499999999  5.272470238095234 11.546874999999996  C 5.272470238095234 11.546874999999996  4.255952380952376 8.28125  4.200297619047615 8.123437499999998  L 4.0971726190476145 7.134375  L 1.5812499999999956 8.1421875  C 1.5812499999999956 8.1421875  0.33720238095237665 8.4796875  0.2258928571428529 10.321874999999999  L 0.018005952380948098 12.556249999999997  C 0.018005952380948098 12.556249999999997  0.0032738095238051507 12.921874999999996  0.4599702380952338 12.989062499999998  L 0.47142857142856714 13  L 10.631696428571423 13  Z " stroke-width="0" stroke-dasharray="0" stroke="rgba(255, 255, 255, 0)" fill="none" transform="matrix(1 0 0 1 113 198 )" class="stroke" mask="url(#Clip4)" />
  </g>
</svg>