<?xml version="1.0" encoding="utf-8"?>
<svg version="1.1" xmlns:xlink="http://www.w3.org/1999/xlink" width="5px" height="5px" xmlns="http://www.w3.org/2000/svg">
  <defs>
    <pattern id="BGPattern" patternUnits="userSpaceOnUse" alignment="0 0" imageRepeat="None" />
    <mask fill="white" id="Clip5">
      <path d="M 5 2.603618421052631  C 5 1.2861842105263146  3.932565789473685 0.21874999999999925  2.615131578947368 0.21874999999999925  C 1.2976973684210522 0.21874999999999925  0.23026315789473684 1.2861842105263146  0.23026315789473684 2.603618421052631  C 0.23026315789473684 3.921052631578947  1.2976973684210522 4.988486842105263  2.615131578947368 4.988486842105263  C 3.932565789473685 4.988486842105263  5 3.921052631578947  5 2.603618421052631  Z M 3.657894736842105 1.5263157894736834  L 3.657894736842105 3.707236842105263  L 3.2648026315789473 3.707236842105263  L 3.2648026315789473 2.3174342105263155  L 2.7828947368421058 3.707236842105263  L 2.4440789473684212 3.707236842105263  L 1.9638157894736838 2.296052631578948  L 1.9638157894736838 3.707236842105263  L 1.5707236842105263 3.707236842105263  L 1.5707236842105263 1.5263157894736834  L 1.8322368421052628 1.5263157894736834  L 1.8322368421052628 1.4983552631578934  L 1.8421052631578947 1.5263157894736834  L 2.0921052631578956 1.5263157894736834  L 2.592105263157895 3.0213815789473673  C 2.6052631578947367 3.0608552631578934  2.6167763157894743 3.0970394736842097  2.6282894736842115 3.131578947368421  C 2.641447368421053 3.0904605263157894  2.6578947368421058 3.0444078947368425  2.6743421052631584 2.9967105263157885  L 3.1809210526315783 1.5263157894736834  L 3.657894736842105 1.5263157894736834  Z " fill-rule="evenodd" />
    </mask>
  </defs>
  <g transform="matrix(1 0 0 1 -122 -206 )">
    <path d="M 5 2.603618421052631  C 5 1.2861842105263146  3.932565789473685 0.21874999999999925  2.615131578947368 0.21874999999999925  C 1.2976973684210522 0.21874999999999925  0.23026315789473684 1.2861842105263146  0.23026315789473684 2.603618421052631  C 0.23026315789473684 3.921052631578947  1.2976973684210522 4.988486842105263  2.615131578947368 4.988486842105263  C 3.932565789473685 4.988486842105263  5 3.921052631578947  5 2.603618421052631  Z M 3.657894736842105 1.5263157894736834  L 3.657894736842105 3.707236842105263  L 3.2648026315789473 3.707236842105263  L 3.2648026315789473 2.3174342105263155  L 2.7828947368421058 3.707236842105263  L 2.4440789473684212 3.707236842105263  L 1.9638157894736838 2.296052631578948  L 1.9638157894736838 3.707236842105263  L 1.5707236842105263 3.707236842105263  L 1.5707236842105263 1.5263157894736834  L 1.8322368421052628 1.5263157894736834  L 1.8322368421052628 1.4983552631578934  L 1.8421052631578947 1.5263157894736834  L 2.0921052631578956 1.5263157894736834  L 2.592105263157895 3.0213815789473673  C 2.6052631578947367 3.0608552631578934  2.6167763157894743 3.0970394736842097  2.6282894736842115 3.131578947368421  C 2.641447368421053 3.0904605263157894  2.6578947368421058 3.0444078947368425  2.6743421052631584 2.9967105263157885  L 3.1809210526315783 1.5263157894736834  L 3.657894736842105 1.5263157894736834  Z " fill-rule="nonzero" fill="rgba(71, 120, 194, 1)" stroke="none" transform="matrix(1 0 0 1 122 206 )" class="fill" />
    <path d="M 5 2.603618421052631  C 5 1.2861842105263146  3.932565789473685 0.21874999999999925  2.615131578947368 0.21874999999999925  C 1.2976973684210522 0.21874999999999925  0.23026315789473684 1.2861842105263146  0.23026315789473684 2.603618421052631  C 0.23026315789473684 3.921052631578947  1.2976973684210522 4.988486842105263  2.615131578947368 4.988486842105263  C 3.932565789473685 4.988486842105263  5 3.921052631578947  5 2.603618421052631  Z " stroke-width="0" stroke-dasharray="0" stroke="rgba(255, 255, 255, 0)" fill="none" transform="matrix(1 0 0 1 122 206 )" class="stroke" mask="url(#Clip5)" />
    <path d="M 3.657894736842105 1.5263157894736834  L 3.657894736842105 3.707236842105263  L 3.2648026315789473 3.707236842105263  L 3.2648026315789473 2.3174342105263155  L 2.7828947368421058 3.707236842105263  L 2.4440789473684212 3.707236842105263  L 1.9638157894736838 2.296052631578948  L 1.9638157894736838 3.707236842105263  L 1.5707236842105263 3.707236842105263  L 1.5707236842105263 1.5263157894736834  L 1.8322368421052628 1.5263157894736834  L 1.8322368421052628 1.4983552631578934  L 1.8421052631578947 1.5263157894736834  L 2.0921052631578956 1.5263157894736834  L 2.592105263157895 3.0213815789473673  C 2.6052631578947367 3.0608552631578934  2.6167763157894743 3.0970394736842097  2.6282894736842115 3.131578947368421  C 2.641447368421053 3.0904605263157894  2.6578947368421058 3.0444078947368425  2.6743421052631584 2.9967105263157885  L 3.1809210526315783 1.5263157894736834  L 3.657894736842105 1.5263157894736834  Z " stroke-width="0" stroke-dasharray="0" stroke="rgba(255, 255, 255, 0)" fill="none" transform="matrix(1 0 0 1 122 206 )" class="stroke" mask="url(#Clip5)" />
  </g>
</svg>