<?xml version="1.0" encoding="utf-8"?>
<svg version="1.1" xmlns:xlink="http://www.w3.org/1999/xlink" width="12px" height="12px" xmlns="http://www.w3.org/2000/svg">
  <defs>
    <pattern id="BGPattern" patternUnits="userSpaceOnUse" alignment="0 0" imageRepeat="None" />
    <mask fill="white" id="Clip31">
      <path d="M 0 6  C 0 2.6913333281250003  2.6913333281250003 0  6 0  C 9.308666671875 0  12 2.6913333281250003  12 6  C 12 9.308666671875  9.308666671875 12  6 12  C 2.6913333281250003 12  0 9.308666671875  0 6  Z M 11.138666671875 6  C 11.138666671875 3.1666666640625  8.8333333359375 0.8613333281250002  6 0.861333328125  C 3.1666666640625 0.861333328125  0.861333328125 3.1653333281250005  0.861333328125 6  C 0.861333328125 8.8333333359375  3.16599999609375 11.139333328125002  6 11.139333328125002  C 8.8333333359375 11.139333328125002  11.138666671875 8.832666656250002  11.138666671875 6  Z M 5.33333333203125 8.6326666640625  C 5.33333333203125 8.2453333359375  5.63199999609375 7.931333332031249  6 7.931333332031249  C 6.36800000390625 7.931333332031249  6.66666666796875 8.244666667968751  6.66666666796875 8.6326666640625  C 6.66666666796875 9.0193333359375  6.36800000390625 9.333333328125  6 9.333333328125  C 5.63199999609375 9.333333328125  5.33333333203125 9.019999992187499  5.33333333203125 8.6326666640625  Z M 5.33333333203125 3.36666666796875  C 5.33333333203125 2.9806666640624995  5.63199999609375 2.6666666718749994  6 2.6666666718749994  C 6.36800000390625 2.6666666718749994  6.66666666796875 2.9800000078125004  6.66666666796875 3.3673333359375  L 6.66666666796875 6.36  C 6.66666666796875 6.7466666718749995  6.36800000390625 7.0606666640625  5.999999999999998 7.0606666640625  C 5.631999996093748 7.0606666640625  5.33333333203125 6.747333328124999  5.33333333203125 6.36  L 5.33333333203125 3.36666666796875  Z " fill-rule="evenodd" />
    </mask>
  </defs>
  <g transform="matrix(1 0 0 1 -26 -1824 )">
    <path d="M 0 6  C 0 2.6913333281250003  2.6913333281250003 0  6 0  C 9.308666671875 0  12 2.6913333281250003  12 6  C 12 9.308666671875  9.308666671875 12  6 12  C 2.6913333281250003 12  0 9.308666671875  0 6  Z M 11.138666671875 6  C 11.138666671875 3.1666666640625  8.8333333359375 0.8613333281250002  6 0.861333328125  C 3.1666666640625 0.861333328125  0.861333328125 3.1653333281250005  0.861333328125 6  C 0.861333328125 8.8333333359375  3.16599999609375 11.139333328125002  6 11.139333328125002  C 8.8333333359375 11.139333328125002  11.138666671875 8.832666656250002  11.138666671875 6  Z M 5.33333333203125 8.6326666640625  C 5.33333333203125 8.2453333359375  5.63199999609375 7.931333332031249  6 7.931333332031249  C 6.36800000390625 7.931333332031249  6.66666666796875 8.244666667968751  6.66666666796875 8.6326666640625  C 6.66666666796875 9.0193333359375  6.36800000390625 9.333333328125  6 9.333333328125  C 5.63199999609375 9.333333328125  5.33333333203125 9.019999992187499  5.33333333203125 8.6326666640625  Z M 5.33333333203125 3.36666666796875  C 5.33333333203125 2.9806666640624995  5.63199999609375 2.6666666718749994  6 2.6666666718749994  C 6.36800000390625 2.6666666718749994  6.66666666796875 2.9800000078125004  6.66666666796875 3.3673333359375  L 6.66666666796875 6.36  C 6.66666666796875 6.7466666718749995  6.36800000390625 7.0606666640625  5.999999999999998 7.0606666640625  C 5.631999996093748 7.0606666640625  5.33333333203125 6.747333328124999  5.33333333203125 6.36  L 5.33333333203125 3.36666666796875  Z " fill-rule="nonzero" fill="rgba(217, 0, 27, 1)" stroke="none" transform="matrix(1 0 0 1 26 1824 )" class="fill" />
    <path d="M 0 6  C 0 2.6913333281250003  2.6913333281250003 0  6 0  C 9.308666671875 0  12 2.6913333281250003  12 6  C 12 9.308666671875  9.308666671875 12  6 12  C 2.6913333281250003 12  0 9.308666671875  0 6  Z " stroke-width="0" stroke-dasharray="0" stroke="rgba(255, 255, 255, 0)" fill="none" transform="matrix(1 0 0 1 26 1824 )" class="stroke" mask="url(#Clip31)" />
    <path d="M 11.138666671875 6  C 11.138666671875 3.1666666640625  8.8333333359375 0.8613333281250002  6 0.861333328125  C 3.1666666640625 0.861333328125  0.861333328125 3.1653333281250005  0.861333328125 6  C 0.861333328125 8.8333333359375  3.16599999609375 11.139333328125002  6 11.139333328125002  C 8.8333333359375 11.139333328125002  11.138666671875 8.832666656250002  11.138666671875 6  Z " stroke-width="0" stroke-dasharray="0" stroke="rgba(255, 255, 255, 0)" fill="none" transform="matrix(1 0 0 1 26 1824 )" class="stroke" mask="url(#Clip31)" />
    <path d="M 5.33333333203125 8.6326666640625  C 5.33333333203125 8.2453333359375  5.63199999609375 7.931333332031249  6 7.931333332031249  C 6.36800000390625 7.931333332031249  6.66666666796875 8.244666667968751  6.66666666796875 8.6326666640625  C 6.66666666796875 9.0193333359375  6.36800000390625 9.333333328125  6 9.333333328125  C 5.63199999609375 9.333333328125  5.33333333203125 9.019999992187499  5.33333333203125 8.6326666640625  Z " stroke-width="0" stroke-dasharray="0" stroke="rgba(255, 255, 255, 0)" fill="none" transform="matrix(1 0 0 1 26 1824 )" class="stroke" mask="url(#Clip31)" />
    <path d="M 5.33333333203125 3.36666666796875  C 5.33333333203125 2.9806666640624995  5.63199999609375 2.6666666718749994  6 2.6666666718749994  C 6.36800000390625 2.6666666718749994  6.66666666796875 2.9800000078125004  6.66666666796875 3.3673333359375  L 6.66666666796875 6.36  C 6.66666666796875 6.7466666718749995  6.36800000390625 7.0606666640625  5.999999999999998 7.0606666640625  C 5.631999996093748 7.0606666640625  5.33333333203125 6.747333328124999  5.33333333203125 6.36  L 5.33333333203125 3.36666666796875  Z " stroke-width="0" stroke-dasharray="0" stroke="rgba(255, 255, 255, 0)" fill="none" transform="matrix(1 0 0 1 26 1824 )" class="stroke" mask="url(#Clip31)" />
  </g>
</svg>