<?xml version="1.0" encoding="utf-8"?>
<svg version="1.1" xmlns:xlink="http://www.w3.org/1999/xlink" width="6px" height="12px" xmlns="http://www.w3.org/2000/svg">
  <defs>
    <pattern id="BGPattern" patternUnits="userSpaceOnUse" alignment="0 0" imageRepeat="None" />
    <mask fill="white" id="Clip7">
      <path d="M 5.22879487890625 6.0015469453125005  L 1.05950965234375 11.204819132812501  L 0.5448066250000001 10.79239475390625  L 4.3861022265625005 5.9984530546875  L 0.5432956445312502 1.12975402734375  L 1.0610206328124998 0.7211310703125  L 5.22879487890625 6.0015469453125005  Z " fill-rule="evenodd" />
    </mask>
  </defs>
  <g transform="matrix(1 0 0 1 -195 -32 )">
    <path d="M 5.22879487890625 6.0015469453125005  L 1.05950965234375 11.204819132812501  L 0.5448066250000001 10.79239475390625  L 4.3861022265625005 5.9984530546875  L 0.5432956445312502 1.12975402734375  L 1.0610206328124998 0.7211310703125  L 5.22879487890625 6.0015469453125005  Z " fill-rule="nonzero" fill="rgba(22, 146, 255, 1)" stroke="none" transform="matrix(1 0 0 1 195 32 )" class="fill" />
    <path d="M 5.22879487890625 6.0015469453125005  L 1.05950965234375 11.204819132812501  L 0.5448066250000001 10.79239475390625  L 4.3861022265625005 5.9984530546875  L 0.5432956445312502 1.12975402734375  L 1.0610206328124998 0.7211310703125  L 5.22879487890625 6.0015469453125005  Z " stroke-width="0" stroke-dasharray="0" stroke="rgba(255, 255, 255, 0)" fill="none" transform="matrix(1 0 0 1 195 32 )" class="stroke" mask="url(#Clip7)" />
  </g>
</svg>