<?xml version="1.0" encoding="utf-8"?>
<svg version="1.1" xmlns:xlink="http://www.w3.org/1999/xlink" width="14px" height="12px" xmlns="http://www.w3.org/2000/svg">
  <defs>
    <pattern id="BGPattern" patternUnits="userSpaceOnUse" alignment="0 0" imageRepeat="None" />
    <mask fill="white" id="Clip9">
      <path d="M 10.794127604166667 11.754000000000001  C 10.589960937499999 11.903999999999996  10.350794270833333 11.988  10.105794270833332 11.988  C 9.936627604166668 11.988  9.744127604166666 11.939999999999998  9.569127604166667 11.843999999999998  L 7.037460937500001 10.542000000000002  L 4.488294270833332 11.843999999999998  C 4.324960937499999 11.934000000000001  4.144127604166668 11.982  3.9516276041666663 11.982  C 3.706627604166666 11.982  3.4674609375000003 11.904  3.2749609375 11.754000000000001  C 2.919127604166667 11.477999999999998  2.7382942708333333 11.004000000000001  2.8199609375000003 10.565999999999999  L 3.339127604166667 7.7879999999999985  L 1.3382942708333332 5.873999999999999  C 1.0291276041666664 5.549999999999999  0.9124609374999996 5.087999999999999  1.0291276041666664 4.6499999999999995  L 1.0349609374999997 4.638  C 1.1807942708333334 4.188  1.5424609374999998 3.8759999999999994  1.9799609375000002 3.8159999999999994  L 4.756627604166667 3.2939999999999996  L 5.999127604166667 0.6900000000000002  C 6.197460937499999 0.276  6.605794270833334 0.012  7.037460937500001 0.012  C 7.486627604166667 0.012  7.906627604166667 0.28800000000000003  8.081627604166666 0.6960000000000002  L 9.324127604166666 3.2940000000000005  L 12.100794270833333 3.792  C 12.538294270833337 3.858  12.905794270833335 4.182  13.028294270833335 4.626  C 13.168294270833332 5.058  13.051627604166667 5.532  12.73662760416667 5.856  L 12.730794270833336 5.862  L 10.74162760416667 7.794  L 11.243294270833335 10.578  C 11.3249609375 11.022000000000002  11.1499609375 11.471999999999998  10.794127604166667 11.754000000000001  Z " fill-rule="evenodd" />
    </mask>
  </defs>
  <g transform="matrix(1 0 0 1 -283 -199 )">
    <path d="M 10.794127604166667 11.754000000000001  C 10.589960937499999 11.903999999999996  10.350794270833333 11.988  10.105794270833332 11.988  C 9.936627604166668 11.988  9.744127604166666 11.939999999999998  9.569127604166667 11.843999999999998  L 7.037460937500001 10.542000000000002  L 4.488294270833332 11.843999999999998  C 4.324960937499999 11.934000000000001  4.144127604166668 11.982  3.9516276041666663 11.982  C 3.706627604166666 11.982  3.4674609375000003 11.904  3.2749609375 11.754000000000001  C 2.919127604166667 11.477999999999998  2.7382942708333333 11.004000000000001  2.8199609375000003 10.565999999999999  L 3.339127604166667 7.7879999999999985  L 1.3382942708333332 5.873999999999999  C 1.0291276041666664 5.549999999999999  0.9124609374999996 5.087999999999999  1.0291276041666664 4.6499999999999995  L 1.0349609374999997 4.638  C 1.1807942708333334 4.188  1.5424609374999998 3.8759999999999994  1.9799609375000002 3.8159999999999994  L 4.756627604166667 3.2939999999999996  L 5.999127604166667 0.6900000000000002  C 6.197460937499999 0.276  6.605794270833334 0.012  7.037460937500001 0.012  C 7.486627604166667 0.012  7.906627604166667 0.28800000000000003  8.081627604166666 0.6960000000000002  L 9.324127604166666 3.2940000000000005  L 12.100794270833333 3.792  C 12.538294270833337 3.858  12.905794270833335 4.182  13.028294270833335 4.626  C 13.168294270833332 5.058  13.051627604166667 5.532  12.73662760416667 5.856  L 12.730794270833336 5.862  L 10.74162760416667 7.794  L 11.243294270833335 10.578  C 11.3249609375 11.022000000000002  11.1499609375 11.471999999999998  10.794127604166667 11.754000000000001  Z " fill-rule="nonzero" fill="rgba(71, 120, 194, 1)" stroke="none" transform="matrix(1 0 0 1 283 199 )" class="fill" />
    <path d="M 10.794127604166667 11.754000000000001  C 10.589960937499999 11.903999999999996  10.350794270833333 11.988  10.105794270833332 11.988  C 9.936627604166668 11.988  9.744127604166666 11.939999999999998  9.569127604166667 11.843999999999998  L 7.037460937500001 10.542000000000002  L 4.488294270833332 11.843999999999998  C 4.324960937499999 11.934000000000001  4.144127604166668 11.982  3.9516276041666663 11.982  C 3.706627604166666 11.982  3.4674609375000003 11.904  3.2749609375 11.754000000000001  C 2.919127604166667 11.477999999999998  2.7382942708333333 11.004000000000001  2.8199609375000003 10.565999999999999  L 3.339127604166667 7.7879999999999985  L 1.3382942708333332 5.873999999999999  C 1.0291276041666664 5.549999999999999  0.9124609374999996 5.087999999999999  1.0291276041666664 4.6499999999999995  L 1.0349609374999997 4.638  C 1.1807942708333334 4.188  1.5424609374999998 3.8759999999999994  1.9799609375000002 3.8159999999999994  L 4.756627604166667 3.2939999999999996  L 5.999127604166667 0.6900000000000002  C 6.197460937499999 0.276  6.605794270833334 0.012  7.037460937500001 0.012  C 7.486627604166667 0.012  7.906627604166667 0.28800000000000003  8.081627604166666 0.6960000000000002  L 9.324127604166666 3.2940000000000005  L 12.100794270833333 3.792  C 12.538294270833337 3.858  12.905794270833335 4.182  13.028294270833335 4.626  C 13.168294270833332 5.058  13.051627604166667 5.532  12.73662760416667 5.856  L 12.730794270833336 5.862  L 10.74162760416667 7.794  L 11.243294270833335 10.578  C 11.3249609375 11.022000000000002  11.1499609375 11.471999999999998  10.794127604166667 11.754000000000001  Z " stroke-width="0" stroke-dasharray="0" stroke="rgba(255, 255, 255, 0)" fill="none" transform="matrix(1 0 0 1 283 199 )" class="stroke" mask="url(#Clip9)" />
  </g>
</svg>