<?xml version="1.0" encoding="utf-8"?>
<svg version="1.1" xmlns:xlink="http://www.w3.org/1999/xlink" width="12px" height="14px" xmlns="http://www.w3.org/2000/svg">
  <defs>
    <pattern id="BGPattern" patternUnits="userSpaceOnUse" alignment="0 0" imageRepeat="None" />
    <mask fill="white" id="Clip32">
      <path d="M 11.501562499999999 8.3390625  C 11.503124999999999 3.7671875  6.667187499999999 2.9281250000000005  5.5421875 2.9046875  L 5.5421875 0.6578124999999999  C 5.5421875 0.07343749999999982  4.834375 -0.22031250000000013  4.421875 0.19374999999999987  L 0.19218750000000018 4.421875  C -0.06406249999999991 4.678125  -0.06406249999999991 5.09375  0.19218750000000018 5.35  L 4.4203125 9.578125  C 4.834375 9.9921875  5.5406249999999995 9.6984375  5.5406249999999995 9.1140625  L 5.5406249999999995 6.692187499999999  C 7.042187499999999 6.687499999999999  9.782812499999999 6.5249999999999995  9.782812499999999 10.25  C 9.782812499999999 12.0953125  8.3328125 13.6375  6.407812499999999 13.99375  C 9.503124999999999 13.6125  11.501562499999999 10.30625  11.501562499999999 8.3390625  Z " fill-rule="evenodd" />
    </mask>
  </defs>
  <g transform="matrix(1 0 0 1 -317 -68 )">
    <path d="M 11.501562499999999 8.3390625  C 11.503124999999999 3.7671875  6.667187499999999 2.9281250000000005  5.5421875 2.9046875  L 5.5421875 0.6578124999999999  C 5.5421875 0.07343749999999982  4.834375 -0.22031250000000013  4.421875 0.19374999999999987  L 0.19218750000000018 4.421875  C -0.06406249999999991 4.678125  -0.06406249999999991 5.09375  0.19218750000000018 5.35  L 4.4203125 9.578125  C 4.834375 9.9921875  5.5406249999999995 9.6984375  5.5406249999999995 9.1140625  L 5.5406249999999995 6.692187499999999  C 7.042187499999999 6.687499999999999  9.782812499999999 6.5249999999999995  9.782812499999999 10.25  C 9.782812499999999 12.0953125  8.3328125 13.6375  6.407812499999999 13.99375  C 9.503124999999999 13.6125  11.501562499999999 10.30625  11.501562499999999 8.3390625  Z " fill-rule="nonzero" fill="rgba(153, 153, 153, 1)" stroke="none" transform="matrix(1 0 0 1 317 68 )" class="fill" />
    <path d="M 11.501562499999999 8.3390625  C 11.503124999999999 3.7671875  6.667187499999999 2.9281250000000005  5.5421875 2.9046875  L 5.5421875 0.6578124999999999  C 5.5421875 0.07343749999999982  4.834375 -0.22031250000000013  4.421875 0.19374999999999987  L 0.19218750000000018 4.421875  C -0.06406249999999991 4.678125  -0.06406249999999991 5.09375  0.19218750000000018 5.35  L 4.4203125 9.578125  C 4.834375 9.9921875  5.5406249999999995 9.6984375  5.5406249999999995 9.1140625  L 5.5406249999999995 6.692187499999999  C 7.042187499999999 6.687499999999999  9.782812499999999 6.5249999999999995  9.782812499999999 10.25  C 9.782812499999999 12.0953125  8.3328125 13.6375  6.407812499999999 13.99375  C 9.503124999999999 13.6125  11.501562499999999 10.30625  11.501562499999999 8.3390625  Z " stroke-width="0" stroke-dasharray="0" stroke="rgba(255, 255, 255, 0)" fill="none" transform="matrix(1 0 0 1 317 68 )" class="stroke" mask="url(#Clip32)" />
  </g>
</svg>