<?xml version="1.0" encoding="utf-8"?>
<svg version="1.1" xmlns:xlink="http://www.w3.org/1999/xlink" width="13px" height="10px" xmlns="http://www.w3.org/2000/svg">
  <defs>
    <linearGradient gradientUnits="userSpaceOnUse" x1="12.935682249040552" y1="5.000000000000002" x2="6.435682249040552" y2="5.000000000000002" id="LinearGradient33">
      <stop id="Stop34" stop-color="#26abf9" offset="0" />
      <stop id="Stop35" stop-color="#0383f0" offset="1" />
    </linearGradient>
    <pattern id="BGPattern" patternUnits="userSpaceOnUse" alignment="0 0" imageRepeat="None" />
    <mask fill="white" id="Clip36">
      <path d="M 3.582766663696289 2.016604072265625  C 3.784613707519531 2.016604072265625  3.962239113098144 2.109605  4.073030712524413 2.252716015625  C 4.1516116985099725 2.2942312056253695  4.214387457309391 2.3581213271778667  4.252450309326171 2.435320576171875  L 4.266355324829101 2.468444189453125  L 6.844166375122071 9.4125133984375  C 6.927596488769531 9.636310146484377  6.778678225280761 9.886435927734373  6.512240122070313 9.971368281250001  C 6.259258489135743 10.052054013671874  5.991026194702148 9.955231132812498  5.893242520324707 9.75309212890625  L 5.8797860500488275 9.720393173828123  L 5.211448050415039 7.921101269531247  L 1.8733464553222654 7.921101269531247  L 1.2059055564575194 9.720393173828123  C 1.1224754428100583 9.944189921875  0.839441032104492 10.05672529296875  0.5734514844360349 9.971368281249998  C 0.3200213062744139 9.890682548828124  0.17334578955078106 9.66094052734375  0.23076005310058575 9.4460616796875  L 0.24107668615722633 9.41208873046875  L 2.8184391809082032 2.46886884765625  C 2.8704303928433434 2.337274719912096  2.9881100239832707 2.2387540937767714  3.13242348046875 2.2060032226562503  C 3.247183196161738 2.085259526360948  3.410751638934402 2.0163995723291634  3.5823181184692388 2.016604072265625  Z M 8.323032397583006 3.9844866992187495  C 8.590816146789551 3.9844866992187495  8.810156598876953 4.111035908203125  8.831686955444335 4.271558046875  L 8.83303260144043 4.297037753906249  L 8.83303260144043 9.658817216796875  C 8.83303260144043 9.831654560546873  8.604272617065428 9.971368281250001  8.323032397583006 9.971368281250001  C 8.055248648376464 9.971368281250001  7.835908196289061 9.845243740234373  7.8148263952636725 9.684296923828125  L 7.812583648498534 9.658817216796875  L 7.812583648498534 4.297462421875  C 7.812583648498534 4.124625078125001  8.041343632873534 3.9849113574218755  8.323032397583006 3.9849113574218755  Z M 3.5419487076416014 3.4252071484375  L 2.224111772949219 6.974954853515626  L 4.860234187561035 6.974954853515626  L 3.5419487076416014 3.424782490234375  Z M 10.736225967346185 1.1256636816406245  C 10.761975091813142 1.0489408203332304  10.848432492074663 1.0063999717444552  10.92955058996582 1.0305394531249998  C 10.97680414539468 1.0446681103969  11.014015012361284 1.0794233981487422  11.029577011108397 1.1239650390625  L 11.428337059997556 2.274373759765625  L 12.675303260864256 2.693090263671875  C 12.736937654033374 2.7137347820258007  12.7781396114963 2.7689125256123748  12.7781396114963 2.8308089094828026  C 12.7781396114963 2.8959944959400157  12.732522132725256 2.953292005672089  12.666332273803707 2.971243720703125  L 11.444933377807615 3.296109970703125  L 11.066806574401852 4.429107568359375  C 11.046292191491624 4.4895155589876445  10.986933993573617 4.530477751170358  10.919911326524522 4.530477751170358  C 10.853410213065533 4.530477751170358  10.794390237212138 4.490140148994258  10.773455540954586 4.430381552734374  L 10.374246936523434 3.2803974902343747  L 9.164061753723141 2.9168870117187495  C 9.100369536034874 2.897398375301454  9.057213100956394 2.8412542417774924  9.057213100956394 2.777882828058012  C 9.057213100956394 2.7153350141552126  9.099273058655648 2.659727357018677  9.161819017272945 2.6395828808593746  L 10.358099174255367 2.2582366113281247  L 10.736225967346185 1.1256636816406245  Z M 8.151143572454291 0.00013095321443594302  C 8.162764372826487 0.00013095321443594302  8.174308512861355 0.0019123352074068463  8.185327857604982 0.005405947265625  C 8.218214660383051 0.015862508922547584  8.243763337021685 0.04068297199018321  8.25395585498047 0.07207784179687499  L 8.481370193359377 0.760454560546875  L 9.229101358337404 1.0003884667968752  C 9.273367112594771 1.0140846312535698  9.30331181627159 1.0531753430309645  9.30331181627159 1.0972650180989831  C 9.30331181627159 1.1428317635450898  9.271364076504113 1.182861957984774  9.22506442034912 1.195308212890625  L 8.480473092590334 1.4050911230468752  L 8.237359547485351 2.096440478515625  C 8.22277908548784 2.1381718596872163  8.181581822532618 2.166352018705045  8.135154158829952 2.166352018705045  C 8.088031640234481 2.166352018705045  8.046385961919757 2.1373365387091776  8.032372656127931 2.0947418359375  L 7.8049583177490245 1.406365107421875  L 7.080551690246582 1.1991301660156248  C 7.034847849488141 1.186302878038895  7.003496953330889 1.1465458207033805  7.003496953330889 1.1014146309264787  C 7.003496953330889 1.057928035785876  7.032641045528166 1.0192315423808587  7.076066207031251 1.0050597460937503  L 7.806303963745117 0.762153212890625  L 8.048968963623047 0.06995453124999995  C 8.063578147420271 0.028268098884856083  8.104751944773348 0.00013095321443594302  8.151143572454291 0.00013095321443594302  Z " fill-rule="evenodd" />
    </mask>
  </defs>
  <g transform="matrix(1 0 0 1 -32 -228 )">
    <path d="M 3.582766663696289 2.016604072265625  C 3.784613707519531 2.016604072265625  3.962239113098144 2.109605  4.073030712524413 2.252716015625  C 4.1516116985099725 2.2942312056253695  4.214387457309391 2.3581213271778667  4.252450309326171 2.435320576171875  L 4.266355324829101 2.468444189453125  L 6.844166375122071 9.4125133984375  C 6.927596488769531 9.636310146484377  6.778678225280761 9.886435927734373  6.512240122070313 9.971368281250001  C 6.259258489135743 10.052054013671874  5.991026194702148 9.955231132812498  5.893242520324707 9.75309212890625  L 5.8797860500488275 9.720393173828123  L 5.211448050415039 7.921101269531247  L 1.8733464553222654 7.921101269531247  L 1.2059055564575194 9.720393173828123  C 1.1224754428100583 9.944189921875  0.839441032104492 10.05672529296875  0.5734514844360349 9.971368281249998  C 0.3200213062744139 9.890682548828124  0.17334578955078106 9.66094052734375  0.23076005310058575 9.4460616796875  L 0.24107668615722633 9.41208873046875  L 2.8184391809082032 2.46886884765625  C 2.8704303928433434 2.337274719912096  2.9881100239832707 2.2387540937767714  3.13242348046875 2.2060032226562503  C 3.247183196161738 2.085259526360948  3.410751638934402 2.0163995723291634  3.5823181184692388 2.016604072265625  Z M 8.323032397583006 3.9844866992187495  C 8.590816146789551 3.9844866992187495  8.810156598876953 4.111035908203125  8.831686955444335 4.271558046875  L 8.83303260144043 4.297037753906249  L 8.83303260144043 9.658817216796875  C 8.83303260144043 9.831654560546873  8.604272617065428 9.971368281250001  8.323032397583006 9.971368281250001  C 8.055248648376464 9.971368281250001  7.835908196289061 9.845243740234373  7.8148263952636725 9.684296923828125  L 7.812583648498534 9.658817216796875  L 7.812583648498534 4.297462421875  C 7.812583648498534 4.124625078125001  8.041343632873534 3.9849113574218755  8.323032397583006 3.9849113574218755  Z M 3.5419487076416014 3.4252071484375  L 2.224111772949219 6.974954853515626  L 4.860234187561035 6.974954853515626  L 3.5419487076416014 3.424782490234375  Z M 10.736225967346185 1.1256636816406245  C 10.761975091813142 1.0489408203332304  10.848432492074663 1.0063999717444552  10.92955058996582 1.0305394531249998  C 10.97680414539468 1.0446681103969  11.014015012361284 1.0794233981487422  11.029577011108397 1.1239650390625  L 11.428337059997556 2.274373759765625  L 12.675303260864256 2.693090263671875  C 12.736937654033374 2.7137347820258007  12.7781396114963 2.7689125256123748  12.7781396114963 2.8308089094828026  C 12.7781396114963 2.8959944959400157  12.732522132725256 2.953292005672089  12.666332273803707 2.971243720703125  L 11.444933377807615 3.296109970703125  L 11.066806574401852 4.429107568359375  C 11.046292191491624 4.4895155589876445  10.986933993573617 4.530477751170358  10.919911326524522 4.530477751170358  C 10.853410213065533 4.530477751170358  10.794390237212138 4.490140148994258  10.773455540954586 4.430381552734374  L 10.374246936523434 3.2803974902343747  L 9.164061753723141 2.9168870117187495  C 9.100369536034874 2.897398375301454  9.057213100956394 2.8412542417774924  9.057213100956394 2.777882828058012  C 9.057213100956394 2.7153350141552126  9.099273058655648 2.659727357018677  9.161819017272945 2.6395828808593746  L 10.358099174255367 2.2582366113281247  L 10.736225967346185 1.1256636816406245  Z M 8.151143572454291 0.00013095321443594302  C 8.162764372826487 0.00013095321443594302  8.174308512861355 0.0019123352074068463  8.185327857604982 0.005405947265625  C 8.218214660383051 0.015862508922547584  8.243763337021685 0.04068297199018321  8.25395585498047 0.07207784179687499  L 8.481370193359377 0.760454560546875  L 9.229101358337404 1.0003884667968752  C 9.273367112594771 1.0140846312535698  9.30331181627159 1.0531753430309645  9.30331181627159 1.0972650180989831  C 9.30331181627159 1.1428317635450898  9.271364076504113 1.182861957984774  9.22506442034912 1.195308212890625  L 8.480473092590334 1.4050911230468752  L 8.237359547485351 2.096440478515625  C 8.22277908548784 2.1381718596872163  8.181581822532618 2.166352018705045  8.135154158829952 2.166352018705045  C 8.088031640234481 2.166352018705045  8.046385961919757 2.1373365387091776  8.032372656127931 2.0947418359375  L 7.8049583177490245 1.406365107421875  L 7.080551690246582 1.1991301660156248  C 7.034847849488141 1.186302878038895  7.003496953330889 1.1465458207033805  7.003496953330889 1.1014146309264787  C 7.003496953330889 1.057928035785876  7.032641045528166 1.0192315423808587  7.076066207031251 1.0050597460937503  L 7.806303963745117 0.762153212890625  L 8.048968963623047 0.06995453124999995  C 8.063578147420271 0.028268098884856083  8.104751944773348 0.00013095321443594302  8.151143572454291 0.00013095321443594302  Z " fill-rule="nonzero" fill="url(#LinearGradient33)" stroke="none" transform="matrix(1 0 0 1 32 228 )" class="fill" />
    <path d="M 3.582766663696289 2.016604072265625  C 3.784613707519531 2.016604072265625  3.962239113098144 2.109605  4.073030712524413 2.252716015625  C 4.1516116985099725 2.2942312056253695  4.214387457309391 2.3581213271778667  4.252450309326171 2.435320576171875  L 4.266355324829101 2.468444189453125  L 6.844166375122071 9.4125133984375  C 6.927596488769531 9.636310146484377  6.778678225280761 9.886435927734373  6.512240122070313 9.971368281250001  C 6.259258489135743 10.052054013671874  5.991026194702148 9.955231132812498  5.893242520324707 9.75309212890625  L 5.8797860500488275 9.720393173828123  L 5.211448050415039 7.921101269531247  L 1.8733464553222654 7.921101269531247  L 1.2059055564575194 9.720393173828123  C 1.1224754428100583 9.944189921875  0.839441032104492 10.05672529296875  0.5734514844360349 9.971368281249998  C 0.3200213062744139 9.890682548828124  0.17334578955078106 9.66094052734375  0.23076005310058575 9.4460616796875  L 0.24107668615722633 9.41208873046875  L 2.8184391809082032 2.46886884765625  C 2.8704303928433434 2.337274719912096  2.9881100239832707 2.2387540937767714  3.13242348046875 2.2060032226562503  C 3.247183196161738 2.085259526360948  3.410751638934402 2.0163995723291634  3.5823181184692388 2.016604072265625  Z " stroke-width="0" stroke-dasharray="0" stroke="rgba(255, 255, 255, 0)" fill="none" transform="matrix(1 0 0 1 32 228 )" class="stroke" mask="url(#Clip36)" />
    <path d="M 8.323032397583006 3.9844866992187495  C 8.590816146789551 3.9844866992187495  8.810156598876953 4.111035908203125  8.831686955444335 4.271558046875  L 8.83303260144043 4.297037753906249  L 8.83303260144043 9.658817216796875  C 8.83303260144043 9.831654560546873  8.604272617065428 9.971368281250001  8.323032397583006 9.971368281250001  C 8.055248648376464 9.971368281250001  7.835908196289061 9.845243740234373  7.8148263952636725 9.684296923828125  L 7.812583648498534 9.658817216796875  L 7.812583648498534 4.297462421875  C 7.812583648498534 4.124625078125001  8.041343632873534 3.9849113574218755  8.323032397583006 3.9849113574218755  Z " stroke-width="0" stroke-dasharray="0" stroke="rgba(255, 255, 255, 0)" fill="none" transform="matrix(1 0 0 1 32 228 )" class="stroke" mask="url(#Clip36)" />
    <path d="M 3.5419487076416014 3.4252071484375  L 2.224111772949219 6.974954853515626  L 4.860234187561035 6.974954853515626  L 3.5419487076416014 3.424782490234375  Z " stroke-width="0" stroke-dasharray="0" stroke="rgba(255, 255, 255, 0)" fill="none" transform="matrix(1 0 0 1 32 228 )" class="stroke" mask="url(#Clip36)" />
    <path d="M 10.736225967346185 1.1256636816406245  C 10.761975091813142 1.0489408203332304  10.848432492074663 1.0063999717444552  10.92955058996582 1.0305394531249998  C 10.97680414539468 1.0446681103969  11.014015012361284 1.0794233981487422  11.029577011108397 1.1239650390625  L 11.428337059997556 2.274373759765625  L 12.675303260864256 2.693090263671875  C 12.736937654033374 2.7137347820258007  12.7781396114963 2.7689125256123748  12.7781396114963 2.8308089094828026  C 12.7781396114963 2.8959944959400157  12.732522132725256 2.953292005672089  12.666332273803707 2.971243720703125  L 11.444933377807615 3.296109970703125  L 11.066806574401852 4.429107568359375  C 11.046292191491624 4.4895155589876445  10.986933993573617 4.530477751170358  10.919911326524522 4.530477751170358  C 10.853410213065533 4.530477751170358  10.794390237212138 4.490140148994258  10.773455540954586 4.430381552734374  L 10.374246936523434 3.2803974902343747  L 9.164061753723141 2.9168870117187495  C 9.100369536034874 2.897398375301454  9.057213100956394 2.8412542417774924  9.057213100956394 2.777882828058012  C 9.057213100956394 2.7153350141552126  9.099273058655648 2.659727357018677  9.161819017272945 2.6395828808593746  L 10.358099174255367 2.2582366113281247  L 10.736225967346185 1.1256636816406245  Z " stroke-width="0" stroke-dasharray="0" stroke="rgba(255, 255, 255, 0)" fill="none" transform="matrix(1 0 0 1 32 228 )" class="stroke" mask="url(#Clip36)" />
    <path d="M 8.151143572454291 0.00013095321443594302  C 8.162764372826487 0.00013095321443594302  8.174308512861355 0.0019123352074068463  8.185327857604982 0.005405947265625  C 8.218214660383051 0.015862508922547584  8.243763337021685 0.04068297199018321  8.25395585498047 0.07207784179687499  L 8.481370193359377 0.760454560546875  L 9.229101358337404 1.0003884667968752  C 9.273367112594771 1.0140846312535698  9.30331181627159 1.0531753430309645  9.30331181627159 1.0972650180989831  C 9.30331181627159 1.1428317635450898  9.271364076504113 1.182861957984774  9.22506442034912 1.195308212890625  L 8.480473092590334 1.4050911230468752  L 8.237359547485351 2.096440478515625  C 8.22277908548784 2.1381718596872163  8.181581822532618 2.166352018705045  8.135154158829952 2.166352018705045  C 8.088031640234481 2.166352018705045  8.046385961919757 2.1373365387091776  8.032372656127931 2.0947418359375  L 7.8049583177490245 1.406365107421875  L 7.080551690246582 1.1991301660156248  C 7.034847849488141 1.186302878038895  7.003496953330889 1.1465458207033805  7.003496953330889 1.1014146309264787  C 7.003496953330889 1.057928035785876  7.032641045528166 1.0192315423808587  7.076066207031251 1.0050597460937503  L 7.806303963745117 0.762153212890625  L 8.048968963623047 0.06995453124999995  C 8.063578147420271 0.028268098884856083  8.104751944773348 0.00013095321443594302  8.151143572454291 0.00013095321443594302  Z " stroke-width="0" stroke-dasharray="0" stroke="rgba(255, 255, 255, 0)" fill="none" transform="matrix(1 0 0 1 32 228 )" class="stroke" mask="url(#Clip36)" />
  </g>
</svg>