<?xml version="1.0" encoding="utf-8"?>
<svg version="1.1" xmlns:xlink="http://www.w3.org/1999/xlink" width="16px" height="13px" xmlns="http://www.w3.org/2000/svg">
  <defs>
    <linearGradient gradientUnits="userSpaceOnUse" x1="15.920839691126833" y1="6.500000000000003" x2="7.920839691126833" y2="6.500000000000003" id="LinearGradient37">
      <stop id="Stop38" stop-color="#26abf9" offset="0" />
      <stop id="Stop39" stop-color="#0383f0" offset="1" />
    </linearGradient>
    <pattern id="BGPattern" patternUnits="userSpaceOnUse" alignment="0 0" imageRepeat="None" />
    <mask fill="white" id="Clip40">
      <path d="M 4.409558970703125 2.6215852939453126  C 4.6579861015625 2.6215852939453126  4.876601985351562 2.7424865  5.012960876953124 2.9285308203124996  C 5.109675936627658 2.98250056731298  5.186938408996173 3.0655577253312267  5.23378499609375 3.1659167490234372  L 5.250898861328125 3.2089774462890626  L 8.423589384765625 12.23626741796875  C 8.5262726015625 12.527203190429688  8.342988584960937 12.852366706054687  8.015064765625 12.962778765625  C 7.703702755859375 13.067670217773436  7.373570701171875 12.941800472656249  7.253221563476562 12.679019767578124  L 7.236659753906249 12.636511125976561  L 6.414089908203125 10.297431650390623  L 2.3056571757812496 10.297431650390623  L 1.4841914541015624 12.636511125976561  C 1.3815082373046872 12.927446898437498  1.0331581933593748 13.073742880859374  0.7057864423828122 12.962778765624998  C 0.39387237695312477 12.85788731347656  0.21334866406249978 12.559222685546873  0.28401237304687477 12.279880183593749  L 0.29670976757812473 12.235715349609373  L 3.4688482226562503 3.209529501953125  C 3.532837406576423 3.0384571358857246  3.6776738756717178 2.910380321909803  3.8552904375 2.867804189453125  C 3.9965331645067548 2.7108373842692326  4.1978481709961875 2.6213194440279124  4.409006915039063 2.6215852939453126  Z M 10.243732181640624 5.1798327089843745  C 10.573312180664063 5.1798327089843745  10.843269660156249 5.344346680664063  10.869768560546873 5.5530254609375  L 10.871424740234374 5.586149080078124  L 10.871424740234374 12.556462381835937  C 10.871424740234374 12.781150928710936  10.589873990234373 12.962778765625  10.243732181640624 12.962778765625  C 9.914152182617187 12.962778765625  9.644194703124999 12.798816862304687  9.61824787109375 12.589586000976562  L 9.61548756738281 12.556462381835937  L 9.61548756738281 5.5867011484375  C 9.61548756738281 5.3620126015625  9.897038317382812 5.180384764648438  10.243732181640624 5.180384764648438  Z M 4.359321486328125 4.452769292968751  L 2.7373683359375 9.067441309570313  L 5.981826692382813 9.067441309570313  L 4.359321486328125 4.452217237304687  Z M 13.213816575195304 1.4633627861328118  C 13.245507805308483 1.3636230664331994  13.351916913322661 1.3083199632677915  13.451754572265624 1.3397012890625  C 13.509912794331914 1.3580685435159698  13.555710784444658 1.4032504175933649  13.574864013671874 1.46115455078125  L 14.065645612304685 2.9566858876953126  L 15.600373244140622 3.5010173427734377  C 15.676230958810306 3.527855216633541  15.726941060303139 3.5995862832960874  15.726941060303139 3.6800515823276436  C 15.726941060303139 3.7647928447220207  15.670796471046469 3.8392796073737157  15.589332029296871 3.8626168369140625  L 14.086071849609372 4.284942961914062  L 13.620685014648434 5.757839838867188  C 13.595436543374305 5.836370226683938  13.522380299782913 5.889621076521466  13.439890863414796 5.889621076521466  C 13.358043339157579 5.889621076521466  13.285403368876478 5.837182193692536  13.259637588867182 5.759496018554687  L 12.768303921874995 4.264516737304687  L 11.278845235351557 3.7919531152343744  C 11.200454813581384 3.76661788789189  11.1473392011771 3.69363051431074  11.1473392011771 3.611247676475416  C 11.1473392011771 3.529935518401776  11.199105302960797 3.45764556412428  11.276084944335933 3.431457745117187  L 12.748429752929683 2.935707594726562  L 13.213816575195304 1.4633627861328118  Z M 10.032176704559127 0.0001702391787667259  C 10.046479228094139 0.0001702391787667259  10.060687400444746 0.0024860357696289003  10.074249670898439 0.007027731445312499  C 10.114725735856062 0.020621261599311862  10.146170260949766 0.052887863587238175  10.158714898437502 0.09370119433593749  L 10.438609468750002 0.9885909287109376  L 11.358893979492189 1.3005050068359376  C 11.413374907808949 1.318310020629641  11.45022992771888 1.3691279459402539  11.45022992771888 1.4264445235286782  C 11.45022992771888 1.4856812926086167  11.410909632620447 1.537720545380206  11.353925440429688 1.5539006767578125  L 10.437505344726564 1.8266184599609376  L 10.138288673828125 2.7253726220703127  C 10.120343489831187 2.7796234175933816  10.06963916619399 2.8162576243165587  10.012497426252247 2.8162576243165587  C 9.954500480288592 2.8162576243165587  9.903244260824316 2.778537500321931  9.885997115234376 2.72316438671875  L 9.606102544921876 1.8282746396484375  L 8.714525157226563 1.5588692158203123  C 8.658274276293097 1.5421937414505633  8.61968855794571 1.4905095669143946  8.61968855794571 1.4318390202044224  C 8.61968855794571 1.375306446521639  8.65555820988082 1.3250010050951164  8.7090045625 1.3065776699218752  L 9.607758724609376 0.9907991767578125  L 9.90642333984375 0.09094089062499994  C 9.924403873748027 0.03674852855031291  9.97507931664412 0.0001702391787667259  10.032176704559127 0.0001702391787667259  Z " fill-rule="evenodd" />
    </mask>
  </defs>
  <g transform="matrix(1 0 0 1 -249 -167 )">
    <path d="M 4.409558970703125 2.6215852939453126  C 4.6579861015625 2.6215852939453126  4.876601985351562 2.7424865  5.012960876953124 2.9285308203124996  C 5.109675936627658 2.98250056731298  5.186938408996173 3.0655577253312267  5.23378499609375 3.1659167490234372  L 5.250898861328125 3.2089774462890626  L 8.423589384765625 12.23626741796875  C 8.5262726015625 12.527203190429688  8.342988584960937 12.852366706054687  8.015064765625 12.962778765625  C 7.703702755859375 13.067670217773436  7.373570701171875 12.941800472656249  7.253221563476562 12.679019767578124  L 7.236659753906249 12.636511125976561  L 6.414089908203125 10.297431650390623  L 2.3056571757812496 10.297431650390623  L 1.4841914541015624 12.636511125976561  C 1.3815082373046872 12.927446898437498  1.0331581933593748 13.073742880859374  0.7057864423828122 12.962778765624998  C 0.39387237695312477 12.85788731347656  0.21334866406249978 12.559222685546873  0.28401237304687477 12.279880183593749  L 0.29670976757812473 12.235715349609373  L 3.4688482226562503 3.209529501953125  C 3.532837406576423 3.0384571358857246  3.6776738756717178 2.910380321909803  3.8552904375 2.867804189453125  C 3.9965331645067548 2.7108373842692326  4.1978481709961875 2.6213194440279124  4.409006915039063 2.6215852939453126  Z M 10.243732181640624 5.1798327089843745  C 10.573312180664063 5.1798327089843745  10.843269660156249 5.344346680664063  10.869768560546873 5.5530254609375  L 10.871424740234374 5.586149080078124  L 10.871424740234374 12.556462381835937  C 10.871424740234374 12.781150928710936  10.589873990234373 12.962778765625  10.243732181640624 12.962778765625  C 9.914152182617187 12.962778765625  9.644194703124999 12.798816862304687  9.61824787109375 12.589586000976562  L 9.61548756738281 12.556462381835937  L 9.61548756738281 5.5867011484375  C 9.61548756738281 5.3620126015625  9.897038317382812 5.180384764648438  10.243732181640624 5.180384764648438  Z M 4.359321486328125 4.452769292968751  L 2.7373683359375 9.067441309570313  L 5.981826692382813 9.067441309570313  L 4.359321486328125 4.452217237304687  Z M 13.213816575195304 1.4633627861328118  C 13.245507805308483 1.3636230664331994  13.351916913322661 1.3083199632677915  13.451754572265624 1.3397012890625  C 13.509912794331914 1.3580685435159698  13.555710784444658 1.4032504175933649  13.574864013671874 1.46115455078125  L 14.065645612304685 2.9566858876953126  L 15.600373244140622 3.5010173427734377  C 15.676230958810306 3.527855216633541  15.726941060303139 3.5995862832960874  15.726941060303139 3.6800515823276436  C 15.726941060303139 3.7647928447220207  15.670796471046469 3.8392796073737157  15.589332029296871 3.8626168369140625  L 14.086071849609372 4.284942961914062  L 13.620685014648434 5.757839838867188  C 13.595436543374305 5.836370226683938  13.522380299782913 5.889621076521466  13.439890863414796 5.889621076521466  C 13.358043339157579 5.889621076521466  13.285403368876478 5.837182193692536  13.259637588867182 5.759496018554687  L 12.768303921874995 4.264516737304687  L 11.278845235351557 3.7919531152343744  C 11.200454813581384 3.76661788789189  11.1473392011771 3.69363051431074  11.1473392011771 3.611247676475416  C 11.1473392011771 3.529935518401776  11.199105302960797 3.45764556412428  11.276084944335933 3.431457745117187  L 12.748429752929683 2.935707594726562  L 13.213816575195304 1.4633627861328118  Z M 10.032176704559127 0.0001702391787667259  C 10.046479228094139 0.0001702391787667259  10.060687400444746 0.0024860357696289003  10.074249670898439 0.007027731445312499  C 10.114725735856062 0.020621261599311862  10.146170260949766 0.052887863587238175  10.158714898437502 0.09370119433593749  L 10.438609468750002 0.9885909287109376  L 11.358893979492189 1.3005050068359376  C 11.413374907808949 1.318310020629641  11.45022992771888 1.3691279459402539  11.45022992771888 1.4264445235286782  C 11.45022992771888 1.4856812926086167  11.410909632620447 1.537720545380206  11.353925440429688 1.5539006767578125  L 10.437505344726564 1.8266184599609376  L 10.138288673828125 2.7253726220703127  C 10.120343489831187 2.7796234175933816  10.06963916619399 2.8162576243165587  10.012497426252247 2.8162576243165587  C 9.954500480288592 2.8162576243165587  9.903244260824316 2.778537500321931  9.885997115234376 2.72316438671875  L 9.606102544921876 1.8282746396484375  L 8.714525157226563 1.5588692158203123  C 8.658274276293097 1.5421937414505633  8.61968855794571 1.4905095669143946  8.61968855794571 1.4318390202044224  C 8.61968855794571 1.375306446521639  8.65555820988082 1.3250010050951164  8.7090045625 1.3065776699218752  L 9.607758724609376 0.9907991767578125  L 9.90642333984375 0.09094089062499994  C 9.924403873748027 0.03674852855031291  9.97507931664412 0.0001702391787667259  10.032176704559127 0.0001702391787667259  Z " fill-rule="nonzero" fill="url(#LinearGradient37)" stroke="none" transform="matrix(1 0 0 1 249 167 )" class="fill" />
    <path d="M 4.409558970703125 2.6215852939453126  C 4.6579861015625 2.6215852939453126  4.876601985351562 2.7424865  5.012960876953124 2.9285308203124996  C 5.109675936627658 2.98250056731298  5.186938408996173 3.0655577253312267  5.23378499609375 3.1659167490234372  L 5.250898861328125 3.2089774462890626  L 8.423589384765625 12.23626741796875  C 8.5262726015625 12.527203190429688  8.342988584960937 12.852366706054687  8.015064765625 12.962778765625  C 7.703702755859375 13.067670217773436  7.373570701171875 12.941800472656249  7.253221563476562 12.679019767578124  L 7.236659753906249 12.636511125976561  L 6.414089908203125 10.297431650390623  L 2.3056571757812496 10.297431650390623  L 1.4841914541015624 12.636511125976561  C 1.3815082373046872 12.927446898437498  1.0331581933593748 13.073742880859374  0.7057864423828122 12.962778765624998  C 0.39387237695312477 12.85788731347656  0.21334866406249978 12.559222685546873  0.28401237304687477 12.279880183593749  L 0.29670976757812473 12.235715349609373  L 3.4688482226562503 3.209529501953125  C 3.532837406576423 3.0384571358857246  3.6776738756717178 2.910380321909803  3.8552904375 2.867804189453125  C 3.9965331645067548 2.7108373842692326  4.1978481709961875 2.6213194440279124  4.409006915039063 2.6215852939453126  Z " stroke-width="0" stroke-dasharray="0" stroke="rgba(255, 255, 255, 0)" fill="none" transform="matrix(1 0 0 1 249 167 )" class="stroke" mask="url(#Clip40)" />
    <path d="M 10.243732181640624 5.1798327089843745  C 10.573312180664063 5.1798327089843745  10.843269660156249 5.344346680664063  10.869768560546873 5.5530254609375  L 10.871424740234374 5.586149080078124  L 10.871424740234374 12.556462381835937  C 10.871424740234374 12.781150928710936  10.589873990234373 12.962778765625  10.243732181640624 12.962778765625  C 9.914152182617187 12.962778765625  9.644194703124999 12.798816862304687  9.61824787109375 12.589586000976562  L 9.61548756738281 12.556462381835937  L 9.61548756738281 5.5867011484375  C 9.61548756738281 5.3620126015625  9.897038317382812 5.180384764648438  10.243732181640624 5.180384764648438  Z " stroke-width="0" stroke-dasharray="0" stroke="rgba(255, 255, 255, 0)" fill="none" transform="matrix(1 0 0 1 249 167 )" class="stroke" mask="url(#Clip40)" />
    <path d="M 4.359321486328125 4.452769292968751  L 2.7373683359375 9.067441309570313  L 5.981826692382813 9.067441309570313  L 4.359321486328125 4.452217237304687  Z " stroke-width="0" stroke-dasharray="0" stroke="rgba(255, 255, 255, 0)" fill="none" transform="matrix(1 0 0 1 249 167 )" class="stroke" mask="url(#Clip40)" />
    <path d="M 13.213816575195304 1.4633627861328118  C 13.245507805308483 1.3636230664331994  13.351916913322661 1.3083199632677915  13.451754572265624 1.3397012890625  C 13.509912794331914 1.3580685435159698  13.555710784444658 1.4032504175933649  13.574864013671874 1.46115455078125  L 14.065645612304685 2.9566858876953126  L 15.600373244140622 3.5010173427734377  C 15.676230958810306 3.527855216633541  15.726941060303139 3.5995862832960874  15.726941060303139 3.6800515823276436  C 15.726941060303139 3.7647928447220207  15.670796471046469 3.8392796073737157  15.589332029296871 3.8626168369140625  L 14.086071849609372 4.284942961914062  L 13.620685014648434 5.757839838867188  C 13.595436543374305 5.836370226683938  13.522380299782913 5.889621076521466  13.439890863414796 5.889621076521466  C 13.358043339157579 5.889621076521466  13.285403368876478 5.837182193692536  13.259637588867182 5.759496018554687  L 12.768303921874995 4.264516737304687  L 11.278845235351557 3.7919531152343744  C 11.200454813581384 3.76661788789189  11.1473392011771 3.69363051431074  11.1473392011771 3.611247676475416  C 11.1473392011771 3.529935518401776  11.199105302960797 3.45764556412428  11.276084944335933 3.431457745117187  L 12.748429752929683 2.935707594726562  L 13.213816575195304 1.4633627861328118  Z " stroke-width="0" stroke-dasharray="0" stroke="rgba(255, 255, 255, 0)" fill="none" transform="matrix(1 0 0 1 249 167 )" class="stroke" mask="url(#Clip40)" />
    <path d="M 10.032176704559127 0.0001702391787667259  C 10.046479228094139 0.0001702391787667259  10.060687400444746 0.0024860357696289003  10.074249670898439 0.007027731445312499  C 10.114725735856062 0.020621261599311862  10.146170260949766 0.052887863587238175  10.158714898437502 0.09370119433593749  L 10.438609468750002 0.9885909287109376  L 11.358893979492189 1.3005050068359376  C 11.413374907808949 1.318310020629641  11.45022992771888 1.3691279459402539  11.45022992771888 1.4264445235286782  C 11.45022992771888 1.4856812926086167  11.410909632620447 1.537720545380206  11.353925440429688 1.5539006767578125  L 10.437505344726564 1.8266184599609376  L 10.138288673828125 2.7253726220703127  C 10.120343489831187 2.7796234175933816  10.06963916619399 2.8162576243165587  10.012497426252247 2.8162576243165587  C 9.954500480288592 2.8162576243165587  9.903244260824316 2.778537500321931  9.885997115234376 2.72316438671875  L 9.606102544921876 1.8282746396484375  L 8.714525157226563 1.5588692158203123  C 8.658274276293097 1.5421937414505633  8.61968855794571 1.4905095669143946  8.61968855794571 1.4318390202044224  C 8.61968855794571 1.375306446521639  8.65555820988082 1.3250010050951164  8.7090045625 1.3065776699218752  L 9.607758724609376 0.9907991767578125  L 9.90642333984375 0.09094089062499994  C 9.924403873748027 0.03674852855031291  9.97507931664412 0.0001702391787667259  10.032176704559127 0.0001702391787667259  Z " stroke-width="0" stroke-dasharray="0" stroke="rgba(255, 255, 255, 0)" fill="none" transform="matrix(1 0 0 1 249 167 )" class="stroke" mask="url(#Clip40)" />
  </g>
</svg>