<?xml version="1.0" encoding="utf-8"?>
<svg version="1.1" xmlns:xlink="http://www.w3.org/1999/xlink" width="24px" height="24px" xmlns="http://www.w3.org/2000/svg">
  <defs>
    <linearGradient gradientUnits="userSpaceOnUse" x1="0" y1="12" x2="23.759999999999998" y2="12" id="LinearGradient10">
      <stop id="Stop11" stop-color="#e2a77a" offset="0" />
      <stop id="Stop12" stop-color="#ca8f61" offset="1" />
    </linearGradient>
    <pattern id="BGPattern" patternUnits="userSpaceOnUse" alignment="0 0" imageRepeat="None" />
    <mask fill="white" id="Clip13">
      <path d="M 0 12  C 0 5.279999999999999  5.279999999999999 0  12 0  C 18.72 0  24 5.279999999999999  24 12  C 24 18.72  18.72 24  12 24  C 5.279999999999999 24  0 18.72  0 12  Z " fill-rule="evenodd" />
    </mask>
  </defs>
  <g>
    <path d="M 0 12  C 0 5.279999999999999  5.279999999999999 0  12 0  C 18.72 0  24 5.279999999999999  24 12  C 24 18.72  18.72 24  12 24  C 5.279999999999999 24  0 18.72  0 12  Z " fill-rule="nonzero" fill="url(#LinearGradient10)" stroke="none" class="fill" />
    <path d="M 0 12  C 0 5.279999999999999  5.279999999999999 0  12 0  C 18.72 0  24 5.279999999999999  24 12  C 24 18.72  18.72 24  12 24  C 5.279999999999999 24  0 18.72  0 12  Z " stroke-width="2" stroke-dasharray="0" stroke="rgba(121, 121, 121, 0)" fill="none" class="stroke" mask="url(#Clip13)" />
  </g>
</svg>