<?xml version="1.0" encoding="utf-8"?>
<svg version="1.1" xmlns:xlink="http://www.w3.org/1999/xlink" width="14px" height="14px" xmlns="http://www.w3.org/2000/svg">
  <defs>
    <pattern id="BGPattern" patternUnits="userSpaceOnUse" alignment="0 0" imageRepeat="None" />
    <mask fill="white" id="Clip14">
      <path d="M 3.2392089886474604 6.16  C 3.3267089929199214 6.346666662109374  3.3267089929199214 6.44  3.3267089801025396 6.533333337890625  L 7.439208988647462 6.533333337890625  C 7.701708988647463 6.533333337890625  7.876708984375002 6.719999999999999  7.876708984375002 7  C 7.876708984375002 7.28  7.701708988647463 7.466666662109375  7.439208988647462 7.466666662109375  L 3.3267089801025396 7.466666662109375  C 3.3267089801025396 7.560000000000002  3.2392089758300786 7.65333332421875  3.2392089886474613 7.839999999999999  L 0.8767089886474608 13.066666662109375  L 13.126708984375 7  L 0.8767089886474608 0.933333337890625  L 3.2392089886474604 6.16  Z M 13.914208984375 7.373333337890626  C 13.82670898010254 7.560000000000002  13.651708984375002 7.74666667578125  13.476708988647461 7.840000000000001  L 1.2267089801025397 13.906666662109377  C 0.7892089843750006 14.093333324218753  0.2642089843750006 13.906666662109377  0.08920898864746149 13.440000000000001  C 0.001708984374999994 13.16  0.001708984374999994 12.88  0.08920898864746149 12.600000000000001  L 2.4517089886474617 7.373333337890626  C 2.5392089929199217 7.093333337890625  2.5392089929199217 6.813333337890626  2.4517089886474617 6.5333333378906255  L 0.08920898864746094 1.306666662109375  C -0.08579101989746094 0.8399999999999999  0.08920898864746094 0.28  0.526708984375 0.09333333789062499  C 0.701708980102539 0  1.051708984375 0  1.2267089801025388 0.09333333789062499  L 13.476708988647461 6.16  C 13.914208984375 6.346666662109374  14.089208992919923 6.906666662109375  13.914208984375 7.373333337890626  Z " fill-rule="evenodd" />
    </mask>
  </defs>
  <g transform="matrix(1 0 0 1 -5 -5 )">
    <path d="M 3.2392089886474604 6.16  C 3.3267089929199214 6.346666662109374  3.3267089929199214 6.44  3.3267089801025396 6.533333337890625  L 7.439208988647462 6.533333337890625  C 7.701708988647463 6.533333337890625  7.876708984375002 6.719999999999999  7.876708984375002 7  C 7.876708984375002 7.28  7.701708988647463 7.466666662109375  7.439208988647462 7.466666662109375  L 3.3267089801025396 7.466666662109375  C 3.3267089801025396 7.560000000000002  3.2392089758300786 7.65333332421875  3.2392089886474613 7.839999999999999  L 0.8767089886474608 13.066666662109375  L 13.126708984375 7  L 0.8767089886474608 0.933333337890625  L 3.2392089886474604 6.16  Z M 13.914208984375 7.373333337890626  C 13.82670898010254 7.560000000000002  13.651708984375002 7.74666667578125  13.476708988647461 7.840000000000001  L 1.2267089801025397 13.906666662109377  C 0.7892089843750006 14.093333324218753  0.2642089843750006 13.906666662109377  0.08920898864746149 13.440000000000001  C 0.001708984374999994 13.16  0.001708984374999994 12.88  0.08920898864746149 12.600000000000001  L 2.4517089886474617 7.373333337890626  C 2.5392089929199217 7.093333337890625  2.5392089929199217 6.813333337890626  2.4517089886474617 6.5333333378906255  L 0.08920898864746094 1.306666662109375  C -0.08579101989746094 0.8399999999999999  0.08920898864746094 0.28  0.526708984375 0.09333333789062499  C 0.701708980102539 0  1.051708984375 0  1.2267089801025388 0.09333333789062499  L 13.476708988647461 6.16  C 13.914208984375 6.346666662109374  14.089208992919923 6.906666662109375  13.914208984375 7.373333337890626  Z " fill-rule="nonzero" fill="rgba(255, 255, 255, 1)" stroke="none" transform="matrix(1 0 0 1 5 5 )" class="fill" />
    <path d="M 3.2392089886474604 6.16  C 3.3267089929199214 6.346666662109374  3.3267089929199214 6.44  3.3267089801025396 6.533333337890625  L 7.439208988647462 6.533333337890625  C 7.701708988647463 6.533333337890625  7.876708984375002 6.719999999999999  7.876708984375002 7  C 7.876708984375002 7.28  7.701708988647463 7.466666662109375  7.439208988647462 7.466666662109375  L 3.3267089801025396 7.466666662109375  C 3.3267089801025396 7.560000000000002  3.2392089758300786 7.65333332421875  3.2392089886474613 7.839999999999999  L 0.8767089886474608 13.066666662109375  L 13.126708984375 7  L 0.8767089886474608 0.933333337890625  L 3.2392089886474604 6.16  Z " stroke-width="0" stroke-dasharray="0" stroke="rgba(255, 255, 255, 0)" fill="none" transform="matrix(1 0 0 1 5 5 )" class="stroke" mask="url(#Clip14)" />
    <path d="M 13.914208984375 7.373333337890626  C 13.82670898010254 7.560000000000002  13.651708984375002 7.74666667578125  13.476708988647461 7.840000000000001  L 1.2267089801025397 13.906666662109377  C 0.7892089843750006 14.093333324218753  0.2642089843750006 13.906666662109377  0.08920898864746149 13.440000000000001  C 0.001708984374999994 13.16  0.001708984374999994 12.88  0.08920898864746149 12.600000000000001  L 2.4517089886474617 7.373333337890626  C 2.5392089929199217 7.093333337890625  2.5392089929199217 6.813333337890626  2.4517089886474617 6.5333333378906255  L 0.08920898864746094 1.306666662109375  C -0.08579101989746094 0.8399999999999999  0.08920898864746094 0.28  0.526708984375 0.09333333789062499  C 0.701708980102539 0  1.051708984375 0  1.2267089801025388 0.09333333789062499  L 13.476708988647461 6.16  C 13.914208984375 6.346666662109374  14.089208992919923 6.906666662109375  13.914208984375 7.373333337890626  Z " stroke-width="0" stroke-dasharray="0" stroke="rgba(255, 255, 255, 0)" fill="none" transform="matrix(1 0 0 1 5 5 )" class="stroke" mask="url(#Clip14)" />
  </g>
</svg>