<?xml version="1.0" encoding="utf-8"?>
<svg version="1.1" xmlns:xlink="http://www.w3.org/1999/xlink" width="14px" height="13px" xmlns="http://www.w3.org/2000/svg">
  <defs>
    <pattern id="BGPattern" patternUnits="userSpaceOnUse" alignment="0 0" imageRepeat="None" />
    <mask fill="white" id="Clip1">
      <path d="M 13.499828623046874 6.0546737158203126  C 13.632103749999999 5.50793650390625  13.530692822265625 4.912698403320313  13.235278369140623 4.4938271533203125  L 13.230869189453124 4.485008823242188  C 12.878135502929688 4.00881833984375  12.31817078125 3.7266313964843754  11.727341860351565 3.7266313964843754  L 9.011292475585938 3.7266313964843754  L 9.147976782226563 2.1878306884765633  C 9.205296000976563 1.6587301660156257  9.006883310546876 1.1384479736328132  8.592421225585937 0.719576723632813  L 8.574784536132814 0.701940034179688  C 8.257324213867188 0.41093474609375064  7.834043798828127 0.24779541992187568  7.388717514648439 0.24779541992187568  C 6.877253666992189 0.24779541992187568  6.396654018554688 0.45943563476562543  6.061557021484376 0.8253968310546882  L 6.043920332031252 0.8474426855468757  L 3.9142907031250034 3.7266313964843754  L 2.5606751904296905 3.7266313964843754  L 2.5077651367187537 3.7354497412109366  C 2.2211690136718785 3.783950629882813  1.8992995263671917 3.836860668945312  1.5597933496093788 4.00881833984375  L 1.5421566748046907 4.017636684570313  C 0.8719626660156283 4.383597880859375  0.4575005957031281 5.097883598632813  0.45750058105469016 5.8827160449218745  L 0.45750058105469016 10.635802475585937  C 0.45750058105469016 10.962081127929688  0.5500931787109407 11.305996484375  0.7352783593750027 11.680776010742187  L 0.7440967041015654 11.698412700195313  C 1.09242122558594 12.346560854492186  1.7670243994140655 12.747795415039063  2.5033559716796905 12.747795415039063  C 2.5430385156250033 12.747795415039063  2.582721044921878 12.747795415039063  2.626812753906253 12.743386249999999  L 10.007765136718753 12.743386249999999  C 10.576548203125002 12.721340395507811  11.11005790527344 12.522927690429686  11.550975009765626 12.161375659179686  C 11.991892114257812 11.799823627929685  12.296124926757816 11.319223979492186  12.428400053710941 10.763668437499998  L 13.499828623046874 6.0546737158203126  Z M 3.341098471679688 11.636684301757812  L 2.5827210449218763 11.636684301757812  L 2.565084355468751 11.636684301757812  C 2.5430385009765635 11.636684301757812  2.520992646484376 11.641093466796875  2.503355971679688 11.641093481445314  C 2.181486484375 11.641093481445314  1.8816628515625002 11.464726645507813  1.72734185546875 11.1825396875  C 1.6215217480468747 10.966490307617189  1.568611694335937 10.785714291992187  1.568611694335937 10.640211640625001  L 1.568611694335937 5.8827160449218745  C 1.568611694335937 5.512345668945312  1.7626152197265619 5.168430327148437  2.066848032226563 4.99647265625  C 2.2432148681640633 4.90828923828125  2.4328092285156258 4.873015859375  2.6532677880859374 4.837742509765625  L 3.341098471679688 4.837742509765625  L 3.341098471679688 11.636684301757812  Z M 12.32257994628906 5.141975307617187  C 12.441627563476562 5.2962962890625  12.476900927734373 5.565255737304687  12.419581708984374 5.794532626953124  L 12.419581708984374 5.798941791992187  L 11.348153139648439 10.507936513671876  C 11.193832158203126 11.147266323242187  10.629458256835937 11.6058201171875  9.972491772460936 11.636684301757812  L 4.447800405273439 11.636684301757812  L 4.447800405273439 4.837742509765625  L 4.474255439453126 4.837742509765625  L 6.89048119140625 1.5573192236328124  C 7.013937988281251 1.4338624267578122  7.190304824218749 1.3589065185546874  7.375490004882812 1.3589065185546874  C 7.538629331054686 1.3589065185546874  7.692950327148435 1.411816572265625  7.803179599609374 1.5132275146484373  C 7.926636396484374 1.6366843115234375  8.0589115234375 1.835097001953125  8.032456489257813 2.0731922363281248  L 7.864907998046874 3.9294532666015627  C 7.842862143554687 4.163139335937499  7.922227216796875 4.392416225585937  8.080957377929685 4.568783061523437  C 8.239687539062498 4.740740732421874  8.464555263671874 4.837742495117187  8.698241333007811 4.837742509765625  L 11.714114335937499 4.837742509765625  C 11.952209570312498 4.837742509765625  12.181486474609375 4.952380961914062  12.32257994628906 5.141975307617187  Z " fill-rule="evenodd" />
    </mask>
  </defs>
  <g transform="matrix(1 0 0 1 -310 -26 )">
    <path d="M 13.499828623046874 6.0546737158203126  C 13.632103749999999 5.50793650390625  13.530692822265625 4.912698403320313  13.235278369140623 4.4938271533203125  L 13.230869189453124 4.485008823242188  C 12.878135502929688 4.00881833984375  12.31817078125 3.7266313964843754  11.727341860351565 3.7266313964843754  L 9.011292475585938 3.7266313964843754  L 9.147976782226563 2.1878306884765633  C 9.205296000976563 1.6587301660156257  9.006883310546876 1.1384479736328132  8.592421225585937 0.719576723632813  L 8.574784536132814 0.701940034179688  C 8.257324213867188 0.41093474609375064  7.834043798828127 0.24779541992187568  7.388717514648439 0.24779541992187568  C 6.877253666992189 0.24779541992187568  6.396654018554688 0.45943563476562543  6.061557021484376 0.8253968310546882  L 6.043920332031252 0.8474426855468757  L 3.9142907031250034 3.7266313964843754  L 2.5606751904296905 3.7266313964843754  L 2.5077651367187537 3.7354497412109366  C 2.2211690136718785 3.783950629882813  1.8992995263671917 3.836860668945312  1.5597933496093788 4.00881833984375  L 1.5421566748046907 4.017636684570313  C 0.8719626660156283 4.383597880859375  0.4575005957031281 5.097883598632813  0.45750058105469016 5.8827160449218745  L 0.45750058105469016 10.635802475585937  C 0.45750058105469016 10.962081127929688  0.5500931787109407 11.305996484375  0.7352783593750027 11.680776010742187  L 0.7440967041015654 11.698412700195313  C 1.09242122558594 12.346560854492186  1.7670243994140655 12.747795415039063  2.5033559716796905 12.747795415039063  C 2.5430385156250033 12.747795415039063  2.582721044921878 12.747795415039063  2.626812753906253 12.743386249999999  L 10.007765136718753 12.743386249999999  C 10.576548203125002 12.721340395507811  11.11005790527344 12.522927690429686  11.550975009765626 12.161375659179686  C 11.991892114257812 11.799823627929685  12.296124926757816 11.319223979492186  12.428400053710941 10.763668437499998  L 13.499828623046874 6.0546737158203126  Z M 3.341098471679688 11.636684301757812  L 2.5827210449218763 11.636684301757812  L 2.565084355468751 11.636684301757812  C 2.5430385009765635 11.636684301757812  2.520992646484376 11.641093466796875  2.503355971679688 11.641093481445314  C 2.181486484375 11.641093481445314  1.8816628515625002 11.464726645507813  1.72734185546875 11.1825396875  C 1.6215217480468747 10.966490307617189  1.568611694335937 10.785714291992187  1.568611694335937 10.640211640625001  L 1.568611694335937 5.8827160449218745  C 1.568611694335937 5.512345668945312  1.7626152197265619 5.168430327148437  2.066848032226563 4.99647265625  C 2.2432148681640633 4.90828923828125  2.4328092285156258 4.873015859375  2.6532677880859374 4.837742509765625  L 3.341098471679688 4.837742509765625  L 3.341098471679688 11.636684301757812  Z M 12.32257994628906 5.141975307617187  C 12.441627563476562 5.2962962890625  12.476900927734373 5.565255737304687  12.419581708984374 5.794532626953124  L 12.419581708984374 5.798941791992187  L 11.348153139648439 10.507936513671876  C 11.193832158203126 11.147266323242187  10.629458256835937 11.6058201171875  9.972491772460936 11.636684301757812  L 4.447800405273439 11.636684301757812  L 4.447800405273439 4.837742509765625  L 4.474255439453126 4.837742509765625  L 6.89048119140625 1.5573192236328124  C 7.013937988281251 1.4338624267578122  7.190304824218749 1.3589065185546874  7.375490004882812 1.3589065185546874  C 7.538629331054686 1.3589065185546874  7.692950327148435 1.411816572265625  7.803179599609374 1.5132275146484373  C 7.926636396484374 1.6366843115234375  8.0589115234375 1.835097001953125  8.032456489257813 2.0731922363281248  L 7.864907998046874 3.9294532666015627  C 7.842862143554687 4.163139335937499  7.922227216796875 4.392416225585937  8.080957377929685 4.568783061523437  C 8.239687539062498 4.740740732421874  8.464555263671874 4.837742495117187  8.698241333007811 4.837742509765625  L 11.714114335937499 4.837742509765625  C 11.952209570312498 4.837742509765625  12.181486474609375 4.952380961914062  12.32257994628906 5.141975307617187  Z " fill-rule="nonzero" fill="rgba(153, 153, 153, 1)" stroke="none" transform="matrix(1 0 0 1 310 26 )" class="fill" />
    <path d="M 13.499828623046874 6.0546737158203126  C 13.632103749999999 5.50793650390625  13.530692822265625 4.912698403320313  13.235278369140623 4.4938271533203125  L 13.230869189453124 4.485008823242188  C 12.878135502929688 4.00881833984375  12.31817078125 3.7266313964843754  11.727341860351565 3.7266313964843754  L 9.011292475585938 3.7266313964843754  L 9.147976782226563 2.1878306884765633  C 9.205296000976563 1.6587301660156257  9.006883310546876 1.1384479736328132  8.592421225585937 0.719576723632813  L 8.574784536132814 0.701940034179688  C 8.257324213867188 0.41093474609375064  7.834043798828127 0.24779541992187568  7.388717514648439 0.24779541992187568  C 6.877253666992189 0.24779541992187568  6.396654018554688 0.45943563476562543  6.061557021484376 0.8253968310546882  L 6.043920332031252 0.8474426855468757  L 3.9142907031250034 3.7266313964843754  L 2.5606751904296905 3.7266313964843754  L 2.5077651367187537 3.7354497412109366  C 2.2211690136718785 3.783950629882813  1.8992995263671917 3.836860668945312  1.5597933496093788 4.00881833984375  L 1.5421566748046907 4.017636684570313  C 0.8719626660156283 4.383597880859375  0.4575005957031281 5.097883598632813  0.45750058105469016 5.8827160449218745  L 0.45750058105469016 10.635802475585937  C 0.45750058105469016 10.962081127929688  0.5500931787109407 11.305996484375  0.7352783593750027 11.680776010742187  L 0.7440967041015654 11.698412700195313  C 1.09242122558594 12.346560854492186  1.7670243994140655 12.747795415039063  2.5033559716796905 12.747795415039063  C 2.5430385156250033 12.747795415039063  2.582721044921878 12.747795415039063  2.626812753906253 12.743386249999999  L 10.007765136718753 12.743386249999999  C 10.576548203125002 12.721340395507811  11.11005790527344 12.522927690429686  11.550975009765626 12.161375659179686  C 11.991892114257812 11.799823627929685  12.296124926757816 11.319223979492186  12.428400053710941 10.763668437499998  L 13.499828623046874 6.0546737158203126  Z " stroke-width="0" stroke-dasharray="0" stroke="rgba(255, 255, 255, 0)" fill="none" transform="matrix(1 0 0 1 310 26 )" class="stroke" mask="url(#Clip1)" />
    <path d="M 3.341098471679688 11.636684301757812  L 2.5827210449218763 11.636684301757812  L 2.565084355468751 11.636684301757812  C 2.5430385009765635 11.636684301757812  2.520992646484376 11.641093466796875  2.503355971679688 11.641093481445314  C 2.181486484375 11.641093481445314  1.8816628515625002 11.464726645507813  1.72734185546875 11.1825396875  C 1.6215217480468747 10.966490307617189  1.568611694335937 10.785714291992187  1.568611694335937 10.640211640625001  L 1.568611694335937 5.8827160449218745  C 1.568611694335937 5.512345668945312  1.7626152197265619 5.168430327148437  2.066848032226563 4.99647265625  C 2.2432148681640633 4.90828923828125  2.4328092285156258 4.873015859375  2.6532677880859374 4.837742509765625  L 3.341098471679688 4.837742509765625  L 3.341098471679688 11.636684301757812  Z " stroke-width="0" stroke-dasharray="0" stroke="rgba(255, 255, 255, 0)" fill="none" transform="matrix(1 0 0 1 310 26 )" class="stroke" mask="url(#Clip1)" />
    <path d="M 12.32257994628906 5.141975307617187  C 12.441627563476562 5.2962962890625  12.476900927734373 5.565255737304687  12.419581708984374 5.794532626953124  L 12.419581708984374 5.798941791992187  L 11.348153139648439 10.507936513671876  C 11.193832158203126 11.147266323242187  10.629458256835937 11.6058201171875  9.972491772460936 11.636684301757812  L 4.447800405273439 11.636684301757812  L 4.447800405273439 4.837742509765625  L 4.474255439453126 4.837742509765625  L 6.89048119140625 1.5573192236328124  C 7.013937988281251 1.4338624267578122  7.190304824218749 1.3589065185546874  7.375490004882812 1.3589065185546874  C 7.538629331054686 1.3589065185546874  7.692950327148435 1.411816572265625  7.803179599609374 1.5132275146484373  C 7.926636396484374 1.6366843115234375  8.0589115234375 1.835097001953125  8.032456489257813 2.0731922363281248  L 7.864907998046874 3.9294532666015627  C 7.842862143554687 4.163139335937499  7.922227216796875 4.392416225585937  8.080957377929685 4.568783061523437  C 8.239687539062498 4.740740732421874  8.464555263671874 4.837742495117187  8.698241333007811 4.837742509765625  L 11.714114335937499 4.837742509765625  C 11.952209570312498 4.837742509765625  12.181486474609375 4.952380961914062  12.32257994628906 5.141975307617187  Z " stroke-width="0" stroke-dasharray="0" stroke="rgba(255, 255, 255, 0)" fill="none" transform="matrix(1 0 0 1 310 26 )" class="stroke" mask="url(#Clip1)" />
  </g>
</svg>