<?xml version="1.0" encoding="utf-8"?>
<svg version="1.1" xmlns:xlink="http://www.w3.org/1999/xlink" width="32px" height="32px" xmlns="http://www.w3.org/2000/svg">
  <defs>
    <pattern id="BGPattern" patternUnits="userSpaceOnUse" alignment="0 0" imageRepeat="None" />
    <mask fill="white" id="Clip19">
      <path d="M 2.0244 1.3016  C 2.3556 0.8176000000000001  2.8832 0.48760000000000014  3.4448 0.338  C 4.072 0.1612  4.75 0.33240000000000003  5.298 0.6596  C 6.0176 1.0776  6.4436 1.9023999999999999  6.4768 2.7211999999999996  C 6.466 3.3568  6.196 3.9799999999999995  5.7572 4.438  C 5.5608 4.6452  5.2912 4.7656  5.1044 4.982799999999999  C 4.894 5.1979999999999995  4.7992 5.504  4.8012 5.800399999999999  C 4.8024 7.484799999999999  4.7992 9.1688  4.8027999999999995 10.8532  C 5.749199999999999 9.786  6.857199999999999 8.8668  8.0572 8.0984  C 10.4376 6.5744  13.2508 5.7208  16.080399999999997 5.72  C 18.064799999999998 5.747599999999999  20.041199999999996 6.182799999999999  21.856799999999996 6.9832  C 23.901199999999996 7.8876  25.755999999999997 9.2296  27.238399999999995 10.9048  C 27.241599999999995 9.2028  27.239999999999995 7.5004  27.239199999999997 5.7984  C 27.241199999999996 5.3516  26.9352 4.9792  26.594799999999996 4.724  C 26.066799999999997 4.3716  25.743199999999995 3.774  25.615599999999997 3.1632000000000002  C 25.476799999999997 2.5732000000000004  25.661999999999995 1.9540000000000002  25.967999999999996 1.4472000000000003  C 26.379199999999997 0.7524000000000003  27.161599999999996 0.31040000000000023  27.961599999999997 0.26400000000000023  C 28.615199999999998 0.26800000000000024  29.260799999999996 0.5380000000000003  29.734799999999996 0.9864000000000003  C 30.182799999999997 1.4468000000000003  30.451999999999995 2.0768000000000004  30.476799999999997 2.7184000000000004  C 30.466799999999996 3.3560000000000003  30.197999999999997 3.9788000000000006  29.767999999999997 4.446400000000001  C 29.583999999999996 4.652800000000001  29.325599999999998 4.774000000000001  29.144399999999997 4.982800000000001  C 28.933999999999997 5.198000000000001  28.839199999999998 5.503600000000001  28.841199999999997 5.800000000000001  C 28.840799999999998 8.132800000000001  28.842 10.465600000000002  28.840799999999998 12.7984  C 28.846799999999998 12.9044  28.815599999999996 13.024400000000002  28.885599999999997 13.1156  C 30.626399999999997 15.870800000000001  31.569199999999995 19.1084  31.655199999999997 22.3624  C 31.694799999999997 23.1764  31.537599999999998 23.994400000000002  31.230399999999996 24.747600000000002  C 30.830399999999997 25.7224  30.197999999999997 26.593200000000003  29.441199999999995 27.322400000000002  C 28.483599999999996 28.2176  27.368799999999993 28.932000000000002  26.197199999999995 29.5132  C 23.667999999999996 30.7528  20.879199999999997 31.4004  18.081599999999995 31.6324  C 16.121199999999995 31.7992  14.143199999999995 31.721600000000002  12.197599999999994 31.4356  C 10.601999999999995 31.198800000000002  9.025199999999995 30.814  7.513199999999994 30.2484  C 5.721599999999994 29.5732  3.996399999999994 28.6464  2.585599999999994 27.3368  C 1.7403999999999942 26.5248  1.0451999999999941 25.536  0.6575999999999942 24.4244  C 0.4635999999999942 23.8632  0.3519999999999942 23.272399999999998  0.3399999999999942 22.6784  C 0.3615999999999942 19.4224  1.2531999999999943 16.1688  2.942799999999994 13.382  C 3.019999999999994 13.2256  3.157199999999994 13.0932  3.199199999999994 12.9244  C 3.200799999999994 10.5624  3.199599999999994 8.2  3.199999999999994 5.838  C 3.2099999999999937 5.4916  3.038399999999994 5.1636  2.7903999999999938 4.9308  C 2.616399999999994 4.739599999999999  2.377199999999994 4.6248  2.2063999999999937 4.4308  C 1.7868 3.964  1.5416 3.3444  1.5248 2.7176  C 1.5499999999999998 2.2108  1.7316 1.7148  2.0244 1.3016  Z M 17.038 7.753999999999999  C 16.522 7.713599999999999  16.0044 7.724799999999998  15.487200000000001 7.7276  C 13.060400000000001 7.79  10.671200000000002 8.6128  8.690000000000001 10.0104  C 7.657600000000001 10.732000000000001  6.739600000000001 11.608400000000001  5.918800000000001 12.561200000000001  C 3.5896 15.2992  2.342 18.8956  2.3452 22.48  C 2.3488 22.749200000000002  2.33 23.020400000000002  2.3756000000000004 23.287200000000002  C 2.4836000000000005 23.9856  2.8332000000000006 24.624000000000002  3.2696000000000005 25.170800000000003  C 4.0552 26.132000000000005  5.050000000000001 26.908400000000004  6.136000000000001 27.504000000000005  C 7.514000000000001 28.265200000000004  9.014800000000001 28.785600000000006  10.5456 29.139600000000005  C 12.2544 29.530400000000004  14.0088 29.713600000000007  15.7608 29.715600000000006  C 17.3296 29.736000000000004  18.9016 29.625200000000007  20.4468 29.349600000000006  C 21.992 29.073200000000007  23.5144 28.638400000000004  24.9444 27.986000000000004  C 25.9908 27.505200000000006  26.9948 26.908000000000005  27.848000000000003 26.129600000000003  C 28.318 25.689200000000003  28.773600000000002 25.222400000000004  29.1092 24.668400000000002  C 29.4536 24.110400000000002  29.6808 23.462000000000003  29.6552 22.8  C 29.6784 21.1784  29.4592 19.5528  28.9968 17.9984  C 28.288 15.6072  26.9936 13.3816  25.2124 11.629999999999999  C 24.241999999999997 10.639199999999999  23.122 9.792399999999999  21.8936 9.146799999999999  C 20.3936 8.355599999999999  18.7304 7.873199999999999  17.038 7.753999999999999  Z " fill-rule="evenodd" />
    </mask>
  </defs>
  <g transform="matrix(1 0 0 1 -13 -294 )">
    <path d="M 2.0244 1.3016  C 2.3556 0.8176000000000001  2.8832 0.48760000000000014  3.4448 0.338  C 4.072 0.1612  4.75 0.33240000000000003  5.298 0.6596  C 6.0176 1.0776  6.4436 1.9023999999999999  6.4768 2.7211999999999996  C 6.466 3.3568  6.196 3.9799999999999995  5.7572 4.438  C 5.5608 4.6452  5.2912 4.7656  5.1044 4.982799999999999  C 4.894 5.1979999999999995  4.7992 5.504  4.8012 5.800399999999999  C 4.8024 7.484799999999999  4.7992 9.1688  4.8027999999999995 10.8532  C 5.749199999999999 9.786  6.857199999999999 8.8668  8.0572 8.0984  C 10.4376 6.5744  13.2508 5.7208  16.080399999999997 5.72  C 18.064799999999998 5.747599999999999  20.041199999999996 6.182799999999999  21.856799999999996 6.9832  C 23.901199999999996 7.8876  25.755999999999997 9.2296  27.238399999999995 10.9048  C 27.241599999999995 9.2028  27.239999999999995 7.5004  27.239199999999997 5.7984  C 27.241199999999996 5.3516  26.9352 4.9792  26.594799999999996 4.724  C 26.066799999999997 4.3716  25.743199999999995 3.774  25.615599999999997 3.1632000000000002  C 25.476799999999997 2.5732000000000004  25.661999999999995 1.9540000000000002  25.967999999999996 1.4472000000000003  C 26.379199999999997 0.7524000000000003  27.161599999999996 0.31040000000000023  27.961599999999997 0.26400000000000023  C 28.615199999999998 0.26800000000000024  29.260799999999996 0.5380000000000003  29.734799999999996 0.9864000000000003  C 30.182799999999997 1.4468000000000003  30.451999999999995 2.0768000000000004  30.476799999999997 2.7184000000000004  C 30.466799999999996 3.3560000000000003  30.197999999999997 3.9788000000000006  29.767999999999997 4.446400000000001  C 29.583999999999996 4.652800000000001  29.325599999999998 4.774000000000001  29.144399999999997 4.982800000000001  C 28.933999999999997 5.198000000000001  28.839199999999998 5.503600000000001  28.841199999999997 5.800000000000001  C 28.840799999999998 8.132800000000001  28.842 10.465600000000002  28.840799999999998 12.7984  C 28.846799999999998 12.9044  28.815599999999996 13.024400000000002  28.885599999999997 13.1156  C 30.626399999999997 15.870800000000001  31.569199999999995 19.1084  31.655199999999997 22.3624  C 31.694799999999997 23.1764  31.537599999999998 23.994400000000002  31.230399999999996 24.747600000000002  C 30.830399999999997 25.7224  30.197999999999997 26.593200000000003  29.441199999999995 27.322400000000002  C 28.483599999999996 28.2176  27.368799999999993 28.932000000000002  26.197199999999995 29.5132  C 23.667999999999996 30.7528  20.879199999999997 31.4004  18.081599999999995 31.6324  C 16.121199999999995 31.7992  14.143199999999995 31.721600000000002  12.197599999999994 31.4356  C 10.601999999999995 31.198800000000002  9.025199999999995 30.814  7.513199999999994 30.2484  C 5.721599999999994 29.5732  3.996399999999994 28.6464  2.585599999999994 27.3368  C 1.7403999999999942 26.5248  1.0451999999999941 25.536  0.6575999999999942 24.4244  C 0.4635999999999942 23.8632  0.3519999999999942 23.272399999999998  0.3399999999999942 22.6784  C 0.3615999999999942 19.4224  1.2531999999999943 16.1688  2.942799999999994 13.382  C 3.019999999999994 13.2256  3.157199999999994 13.0932  3.199199999999994 12.9244  C 3.200799999999994 10.5624  3.199599999999994 8.2  3.199999999999994 5.838  C 3.2099999999999937 5.4916  3.038399999999994 5.1636  2.7903999999999938 4.9308  C 2.616399999999994 4.739599999999999  2.377199999999994 4.6248  2.2063999999999937 4.4308  C 1.7868 3.964  1.5416 3.3444  1.5248 2.7176  C 1.5499999999999998 2.2108  1.7316 1.7148  2.0244 1.3016  Z M 17.038 7.753999999999999  C 16.522 7.713599999999999  16.0044 7.724799999999998  15.487200000000001 7.7276  C 13.060400000000001 7.79  10.671200000000002 8.6128  8.690000000000001 10.0104  C 7.657600000000001 10.732000000000001  6.739600000000001 11.608400000000001  5.918800000000001 12.561200000000001  C 3.5896 15.2992  2.342 18.8956  2.3452 22.48  C 2.3488 22.749200000000002  2.33 23.020400000000002  2.3756000000000004 23.287200000000002  C 2.4836000000000005 23.9856  2.8332000000000006 24.624000000000002  3.2696000000000005 25.170800000000003  C 4.0552 26.132000000000005  5.050000000000001 26.908400000000004  6.136000000000001 27.504000000000005  C 7.514000000000001 28.265200000000004  9.014800000000001 28.785600000000006  10.5456 29.139600000000005  C 12.2544 29.530400000000004  14.0088 29.713600000000007  15.7608 29.715600000000006  C 17.3296 29.736000000000004  18.9016 29.625200000000007  20.4468 29.349600000000006  C 21.992 29.073200000000007  23.5144 28.638400000000004  24.9444 27.986000000000004  C 25.9908 27.505200000000006  26.9948 26.908000000000005  27.848000000000003 26.129600000000003  C 28.318 25.689200000000003  28.773600000000002 25.222400000000004  29.1092 24.668400000000002  C 29.4536 24.110400000000002  29.6808 23.462000000000003  29.6552 22.8  C 29.6784 21.1784  29.4592 19.5528  28.9968 17.9984  C 28.288 15.6072  26.9936 13.3816  25.2124 11.629999999999999  C 24.241999999999997 10.639199999999999  23.122 9.792399999999999  21.8936 9.146799999999999  C 20.3936 8.355599999999999  18.7304 7.873199999999999  17.038 7.753999999999999  Z " fill-rule="nonzero" fill="rgba(217, 0, 27, 1)" stroke="none" transform="matrix(1 0 0 1 13 294 )" class="fill" />
    <path d="M 2.0244 1.3016  C 2.3556 0.8176000000000001  2.8832 0.48760000000000014  3.4448 0.338  C 4.072 0.1612  4.75 0.33240000000000003  5.298 0.6596  C 6.0176 1.0776  6.4436 1.9023999999999999  6.4768 2.7211999999999996  C 6.466 3.3568  6.196 3.9799999999999995  5.7572 4.438  C 5.5608 4.6452  5.2912 4.7656  5.1044 4.982799999999999  C 4.894 5.1979999999999995  4.7992 5.504  4.8012 5.800399999999999  C 4.8024 7.484799999999999  4.7992 9.1688  4.8027999999999995 10.8532  C 5.749199999999999 9.786  6.857199999999999 8.8668  8.0572 8.0984  C 10.4376 6.5744  13.2508 5.7208  16.080399999999997 5.72  C 18.064799999999998 5.747599999999999  20.041199999999996 6.182799999999999  21.856799999999996 6.9832  C 23.901199999999996 7.8876  25.755999999999997 9.2296  27.238399999999995 10.9048  C 27.241599999999995 9.2028  27.239999999999995 7.5004  27.239199999999997 5.7984  C 27.241199999999996 5.3516  26.9352 4.9792  26.594799999999996 4.724  C 26.066799999999997 4.3716  25.743199999999995 3.774  25.615599999999997 3.1632000000000002  C 25.476799999999997 2.5732000000000004  25.661999999999995 1.9540000000000002  25.967999999999996 1.4472000000000003  C 26.379199999999997 0.7524000000000003  27.161599999999996 0.31040000000000023  27.961599999999997 0.26400000000000023  C 28.615199999999998 0.26800000000000024  29.260799999999996 0.5380000000000003  29.734799999999996 0.9864000000000003  C 30.182799999999997 1.4468000000000003  30.451999999999995 2.0768000000000004  30.476799999999997 2.7184000000000004  C 30.466799999999996 3.3560000000000003  30.197999999999997 3.9788000000000006  29.767999999999997 4.446400000000001  C 29.583999999999996 4.652800000000001  29.325599999999998 4.774000000000001  29.144399999999997 4.982800000000001  C 28.933999999999997 5.198000000000001  28.839199999999998 5.503600000000001  28.841199999999997 5.800000000000001  C 28.840799999999998 8.132800000000001  28.842 10.465600000000002  28.840799999999998 12.7984  C 28.846799999999998 12.9044  28.815599999999996 13.024400000000002  28.885599999999997 13.1156  C 30.626399999999997 15.870800000000001  31.569199999999995 19.1084  31.655199999999997 22.3624  C 31.694799999999997 23.1764  31.537599999999998 23.994400000000002  31.230399999999996 24.747600000000002  C 30.830399999999997 25.7224  30.197999999999997 26.593200000000003  29.441199999999995 27.322400000000002  C 28.483599999999996 28.2176  27.368799999999993 28.932000000000002  26.197199999999995 29.5132  C 23.667999999999996 30.7528  20.879199999999997 31.4004  18.081599999999995 31.6324  C 16.121199999999995 31.7992  14.143199999999995 31.721600000000002  12.197599999999994 31.4356  C 10.601999999999995 31.198800000000002  9.025199999999995 30.814  7.513199999999994 30.2484  C 5.721599999999994 29.5732  3.996399999999994 28.6464  2.585599999999994 27.3368  C 1.7403999999999942 26.5248  1.0451999999999941 25.536  0.6575999999999942 24.4244  C 0.4635999999999942 23.8632  0.3519999999999942 23.272399999999998  0.3399999999999942 22.6784  C 0.3615999999999942 19.4224  1.2531999999999943 16.1688  2.942799999999994 13.382  C 3.019999999999994 13.2256  3.157199999999994 13.0932  3.199199999999994 12.9244  C 3.200799999999994 10.5624  3.199599999999994 8.2  3.199999999999994 5.838  C 3.2099999999999937 5.4916  3.038399999999994 5.1636  2.7903999999999938 4.9308  C 2.616399999999994 4.739599999999999  2.377199999999994 4.6248  2.2063999999999937 4.4308  C 1.7868 3.964  1.5416 3.3444  1.5248 2.7176  C 1.5499999999999998 2.2108  1.7316 1.7148  2.0244 1.3016  Z " stroke-width="0" stroke-dasharray="0" stroke="rgba(255, 255, 255, 0)" fill="none" transform="matrix(1 0 0 1 13 294 )" class="stroke" mask="url(#Clip19)" />
    <path d="M 17.038 7.753999999999999  C 16.522 7.713599999999999  16.0044 7.724799999999998  15.487200000000001 7.7276  C 13.060400000000001 7.79  10.671200000000002 8.6128  8.690000000000001 10.0104  C 7.657600000000001 10.732000000000001  6.739600000000001 11.608400000000001  5.918800000000001 12.561200000000001  C 3.5896 15.2992  2.342 18.8956  2.3452 22.48  C 2.3488 22.749200000000002  2.33 23.020400000000002  2.3756000000000004 23.287200000000002  C 2.4836000000000005 23.9856  2.8332000000000006 24.624000000000002  3.2696000000000005 25.170800000000003  C 4.0552 26.132000000000005  5.050000000000001 26.908400000000004  6.136000000000001 27.504000000000005  C 7.514000000000001 28.265200000000004  9.014800000000001 28.785600000000006  10.5456 29.139600000000005  C 12.2544 29.530400000000004  14.0088 29.713600000000007  15.7608 29.715600000000006  C 17.3296 29.736000000000004  18.9016 29.625200000000007  20.4468 29.349600000000006  C 21.992 29.073200000000007  23.5144 28.638400000000004  24.9444 27.986000000000004  C 25.9908 27.505200000000006  26.9948 26.908000000000005  27.848000000000003 26.129600000000003  C 28.318 25.689200000000003  28.773600000000002 25.222400000000004  29.1092 24.668400000000002  C 29.4536 24.110400000000002  29.6808 23.462000000000003  29.6552 22.8  C 29.6784 21.1784  29.4592 19.5528  28.9968 17.9984  C 28.288 15.6072  26.9936 13.3816  25.2124 11.629999999999999  C 24.241999999999997 10.639199999999999  23.122 9.792399999999999  21.8936 9.146799999999999  C 20.3936 8.355599999999999  18.7304 7.873199999999999  17.038 7.753999999999999  Z " stroke-width="0" stroke-dasharray="0" stroke="rgba(255, 255, 255, 0)" fill="none" transform="matrix(1 0 0 1 13 294 )" class="stroke" mask="url(#Clip19)" />
  </g>
</svg>