<?xml version="1.0" encoding="utf-8"?>
<svg version="1.1" xmlns:xlink="http://www.w3.org/1999/xlink" width="16px" height="11px" xmlns="http://www.w3.org/2000/svg">
  <defs>
    <pattern id="BGPattern" patternUnits="userSpaceOnUse" alignment="0 0" imageRepeat="None" />
    <mask fill="white" id="Clip20">
      <path d="M 4.188400000000005 2.3859999999999957  C 4.578800000000005 1.521999999999995  5.440800000000005 0.8967999999999954  6.3812 0.7864000000000004  C 7.0356000000000005 0.7068000000000012  7.7348 0.782  8.3088 1.1264000000000003  C 8.8584 1.4307999999999996  9.2928 1.9288000000000007  9.5424 2.5031999999999996  C 10.576800000000002 4.827199999999998  11.616800000000001 7.148800000000001  12.6492 9.473599999999998  C 12.8672 9.9516  12.6264 10.577999999999996  12.138000000000002 10.777199999999997  C 11.663600000000002 10.998799999999996  11.039200000000001 10.779199999999996  10.815600000000003 10.303599999999996  C 9.764400000000002 7.956399999999995  8.718400000000003 5.606799999999996  7.666800000000004 3.2595999999999954  C 7.585600000000003 3.0551999999999953  7.369200000000005 2.9587999999999948  7.169600000000004 2.908799999999996  C 6.836000000000004 2.8287999999999958  6.463200000000004 2.8639999999999954  6.169600000000004 3.0479999999999947  C 6.008800000000004 3.1435999999999957  5.992400000000005 3.3447999999999958  5.889200000000004 3.486399999999996  C 4.883200000000004 5.7331999999999965  3.882400000000004 7.982399999999998  2.875600000000004 10.228799999999996  C 2.7664000000000044 10.492399999999996  2.550800000000004 10.711199999999995  2.278400000000005 10.802799999999998  C 1.9488000000000056 10.925999999999998  1.560800000000004 10.851999999999997  1.2920000000000051 10.627999999999997  C 0.9500000000000055 10.346799999999998  0.8380000000000054 9.829599999999996  1.0324000000000044 9.431599999999996  C 2.084000000000005 7.082799999999995  3.1360000000000046 4.734399999999997  4.188400000000005 2.3859999999999957  Z M 13.979599999999998 1.882399999999997  C 13.932799999999997 1.4079999999999977  14.227199999999996 0.9115999999999964  14.698 0.7859999999999997  C 14.8612 0.7376000000000004  15.0368 0.7263999999999999  15.2028 0.7691999999999997  C 15.6312 0.8547999999999991  15.968 1.2591999999999999  15.9804 1.6951999999999998  C 15.979199999999999 4.441600000000001  15.981200000000001 7.188  15.979599999999998 9.933999999999997  C 15.955599999999997 10.449199999999998  15.475999999999999 10.883599999999998  14.961199999999998 10.861599999999996  C 14.440399999999997 10.864399999999996  13.981199999999998 10.398399999999995  13.981199999999998 9.879199999999997  C 13.978399999999997 7.213599999999996  13.981599999999997 4.547999999999998  13.979599999999998 1.882399999999997  Z " fill-rule="evenodd" />
    </mask>
  </defs>
  <g transform="matrix(1 0 0 1 -20 -307 )">
    <path d="M 4.188400000000005 2.3859999999999957  C 4.578800000000005 1.521999999999995  5.440800000000005 0.8967999999999954  6.3812 0.7864000000000004  C 7.0356000000000005 0.7068000000000012  7.7348 0.782  8.3088 1.1264000000000003  C 8.8584 1.4307999999999996  9.2928 1.9288000000000007  9.5424 2.5031999999999996  C 10.576800000000002 4.827199999999998  11.616800000000001 7.148800000000001  12.6492 9.473599999999998  C 12.8672 9.9516  12.6264 10.577999999999996  12.138000000000002 10.777199999999997  C 11.663600000000002 10.998799999999996  11.039200000000001 10.779199999999996  10.815600000000003 10.303599999999996  C 9.764400000000002 7.956399999999995  8.718400000000003 5.606799999999996  7.666800000000004 3.2595999999999954  C 7.585600000000003 3.0551999999999953  7.369200000000005 2.9587999999999948  7.169600000000004 2.908799999999996  C 6.836000000000004 2.8287999999999958  6.463200000000004 2.8639999999999954  6.169600000000004 3.0479999999999947  C 6.008800000000004 3.1435999999999957  5.992400000000005 3.3447999999999958  5.889200000000004 3.486399999999996  C 4.883200000000004 5.7331999999999965  3.882400000000004 7.982399999999998  2.875600000000004 10.228799999999996  C 2.7664000000000044 10.492399999999996  2.550800000000004 10.711199999999995  2.278400000000005 10.802799999999998  C 1.9488000000000056 10.925999999999998  1.560800000000004 10.851999999999997  1.2920000000000051 10.627999999999997  C 0.9500000000000055 10.346799999999998  0.8380000000000054 9.829599999999996  1.0324000000000044 9.431599999999996  C 2.084000000000005 7.082799999999995  3.1360000000000046 4.734399999999997  4.188400000000005 2.3859999999999957  Z M 13.979599999999998 1.882399999999997  C 13.932799999999997 1.4079999999999977  14.227199999999996 0.9115999999999964  14.698 0.7859999999999997  C 14.8612 0.7376000000000004  15.0368 0.7263999999999999  15.2028 0.7691999999999997  C 15.6312 0.8547999999999991  15.968 1.2591999999999999  15.9804 1.6951999999999998  C 15.979199999999999 4.441600000000001  15.981200000000001 7.188  15.979599999999998 9.933999999999997  C 15.955599999999997 10.449199999999998  15.475999999999999 10.883599999999998  14.961199999999998 10.861599999999996  C 14.440399999999997 10.864399999999996  13.981199999999998 10.398399999999995  13.981199999999998 9.879199999999997  C 13.978399999999997 7.213599999999996  13.981599999999997 4.547999999999998  13.979599999999998 1.882399999999997  Z " fill-rule="nonzero" fill="rgba(217, 0, 27, 1)" stroke="none" transform="matrix(1 0 0 1 20 307 )" class="fill" />
    <path d="M 4.188400000000005 2.3859999999999957  C 4.578800000000005 1.521999999999995  5.440800000000005 0.8967999999999954  6.3812 0.7864000000000004  C 7.0356000000000005 0.7068000000000012  7.7348 0.782  8.3088 1.1264000000000003  C 8.8584 1.4307999999999996  9.2928 1.9288000000000007  9.5424 2.5031999999999996  C 10.576800000000002 4.827199999999998  11.616800000000001 7.148800000000001  12.6492 9.473599999999998  C 12.8672 9.9516  12.6264 10.577999999999996  12.138000000000002 10.777199999999997  C 11.663600000000002 10.998799999999996  11.039200000000001 10.779199999999996  10.815600000000003 10.303599999999996  C 9.764400000000002 7.956399999999995  8.718400000000003 5.606799999999996  7.666800000000004 3.2595999999999954  C 7.585600000000003 3.0551999999999953  7.369200000000005 2.9587999999999948  7.169600000000004 2.908799999999996  C 6.836000000000004 2.8287999999999958  6.463200000000004 2.8639999999999954  6.169600000000004 3.0479999999999947  C 6.008800000000004 3.1435999999999957  5.992400000000005 3.3447999999999958  5.889200000000004 3.486399999999996  C 4.883200000000004 5.7331999999999965  3.882400000000004 7.982399999999998  2.875600000000004 10.228799999999996  C 2.7664000000000044 10.492399999999996  2.550800000000004 10.711199999999995  2.278400000000005 10.802799999999998  C 1.9488000000000056 10.925999999999998  1.560800000000004 10.851999999999997  1.2920000000000051 10.627999999999997  C 0.9500000000000055 10.346799999999998  0.8380000000000054 9.829599999999996  1.0324000000000044 9.431599999999996  C 2.084000000000005 7.082799999999995  3.1360000000000046 4.734399999999997  4.188400000000005 2.3859999999999957  Z " stroke-width="0" stroke-dasharray="0" stroke="rgba(255, 255, 255, 0)" fill="none" transform="matrix(1 0 0 1 20 307 )" class="stroke" mask="url(#Clip20)" />
    <path d="M 13.979599999999998 1.882399999999997  C 13.932799999999997 1.4079999999999977  14.227199999999996 0.9115999999999964  14.698 0.7859999999999997  C 14.8612 0.7376000000000004  15.0368 0.7263999999999999  15.2028 0.7691999999999997  C 15.6312 0.8547999999999991  15.968 1.2591999999999999  15.9804 1.6951999999999998  C 15.979199999999999 4.441600000000001  15.981200000000001 7.188  15.979599999999998 9.933999999999997  C 15.955599999999997 10.449199999999998  15.475999999999999 10.883599999999998  14.961199999999998 10.861599999999996  C 14.440399999999997 10.864399999999996  13.981199999999998 10.398399999999995  13.981199999999998 9.879199999999997  C 13.978399999999997 7.213599999999996  13.981599999999997 4.547999999999998  13.979599999999998 1.882399999999997  Z " stroke-width="0" stroke-dasharray="0" stroke="rgba(255, 255, 255, 0)" fill="none" transform="matrix(1 0 0 1 20 307 )" class="stroke" mask="url(#Clip20)" />
  </g>
</svg>