<?xml version="1.0" encoding="utf-8"?>
<svg version="1.1" xmlns:xlink="http://www.w3.org/1999/xlink" width="4px" height="3px" xmlns="http://www.w3.org/2000/svg">
  <defs>
    <pattern id="BGPattern" patternUnits="userSpaceOnUse" alignment="0 0" imageRepeat="None" />
    <mask fill="white" id="Clip21">
      <path d="M 0.6484000000000005 0.7284000000000006  C 0.8524000000000012 0.40119999999999933  1.208400000000001 0.18599999999999994  1.5820000000000007 0.10999999999999943  C 1.9600000000000009 0.04199999999999804  2.3712 0.12519999999999953  2.6744000000000003 0.36799999999999855  C 3.048 0.6387999999999998  3.265600000000001 1.1039999999999992  3.2376000000000005 1.5643999999999991  C 3.2224000000000004 2.0711999999999975  2.8956 2.540399999999998  2.4459999999999997 2.7636000000000003  C 2.033199999999999 2.9619999999999997  1.5231999999999992 2.9464000000000006  1.1264000000000003 2.715600000000002  C 0.8960000000000008 2.5792000000000037  0.7056000000000004 2.376800000000003  0.5784000000000002 2.1412000000000013  C 0.3512000000000004 1.7027999999999999  0.37400000000000055 1.1412000000000013  0.6484000000000005 0.7284000000000006  Z " fill-rule="evenodd" />
    </mask>
  </defs>
  <g transform="matrix(1 0 0 1 -25 -314 )">
    <path d="M 0.6484000000000005 0.7284000000000006  C 0.8524000000000012 0.40119999999999933  1.208400000000001 0.18599999999999994  1.5820000000000007 0.10999999999999943  C 1.9600000000000009 0.04199999999999804  2.3712 0.12519999999999953  2.6744000000000003 0.36799999999999855  C 3.048 0.6387999999999998  3.265600000000001 1.1039999999999992  3.2376000000000005 1.5643999999999991  C 3.2224000000000004 2.0711999999999975  2.8956 2.540399999999998  2.4459999999999997 2.7636000000000003  C 2.033199999999999 2.9619999999999997  1.5231999999999992 2.9464000000000006  1.1264000000000003 2.715600000000002  C 0.8960000000000008 2.5792000000000037  0.7056000000000004 2.376800000000003  0.5784000000000002 2.1412000000000013  C 0.3512000000000004 1.7027999999999999  0.37400000000000055 1.1412000000000013  0.6484000000000005 0.7284000000000006  Z " fill-rule="nonzero" fill="rgba(217, 0, 27, 1)" stroke="none" transform="matrix(1 0 0 1 25 314 )" class="fill" />
    <path d="M 0.6484000000000005 0.7284000000000006  C 0.8524000000000012 0.40119999999999933  1.208400000000001 0.18599999999999994  1.5820000000000007 0.10999999999999943  C 1.9600000000000009 0.04199999999999804  2.3712 0.12519999999999953  2.6744000000000003 0.36799999999999855  C 3.048 0.6387999999999998  3.265600000000001 1.1039999999999992  3.2376000000000005 1.5643999999999991  C 3.2224000000000004 2.0711999999999975  2.8956 2.540399999999998  2.4459999999999997 2.7636000000000003  C 2.033199999999999 2.9619999999999997  1.5231999999999992 2.9464000000000006  1.1264000000000003 2.715600000000002  C 0.8960000000000008 2.5792000000000037  0.7056000000000004 2.376800000000003  0.5784000000000002 2.1412000000000013  C 0.3512000000000004 1.7027999999999999  0.37400000000000055 1.1412000000000013  0.6484000000000005 0.7284000000000006  Z " stroke-width="0" stroke-dasharray="0" stroke="rgba(255, 255, 255, 0)" fill="none" transform="matrix(1 0 0 1 25 314 )" class="stroke" mask="url(#Clip21)" />
  </g>
</svg>